<?xml version="1.0" encoding="UTF-8" standalone="no"?>
<svg
   id="svg2457"
   version="1.1"
   viewBox="0 0 507.99999 285.75001"
   height="1080"
   width="1920"
   sodipodi:docname="app-3314268.svg"
   xml:space="preserve"
   inkscape:version="1.3.2 (091e20e, 2023-11-25, custom)"
   xmlns:inkscape="http://www.inkscape.org/namespaces/inkscape"
   xmlns:sodipodi="http://sodipodi.sourceforge.net/DTD/sodipodi-0.dtd"
   xmlns="http://www.w3.org/2000/svg"
   xmlns:svg="http://www.w3.org/2000/svg"><sodipodi:namedview
     id="namedview1"
     pagecolor="#ffffff"
     bordercolor="#666666"
     borderopacity="1.0"
     inkscape:showpageshadow="2"
     inkscape:pageopacity="0.0"
     inkscape:pagecheckerboard="0"
     inkscape:deskcolor="#d1d1d1"
     showguides="true"
     inkscape:zoom="0.36828478"
     inkscape:cx="441.23463"
     inkscape:cy="536.26978"
     inkscape:window-width="1920"
     inkscape:window-height="1017"
     inkscape:window-x="-8"
     inkscape:window-y="-8"
     inkscape:window-maximized="1"
     inkscape:current-layer="svg2457" /><defs
     id="defs2451"><rect
       x="1174.3629"
       y="549.84623"
       width="168.34798"
       height="70.597541"
       id="rect71" /><filter
       style="color-interpolation-filters:sRGB;"
       inkscape:label="Lightness-Contrast"
       id="filter24"
       x="0"
       y="0"
       width="1"
       height="1"><feColorMatrix
         type="hueRotate"
         values="242"
         result="color1"
         id="feColorMatrix23" /><feColorMatrix
         type="saturate"
         values="1"
         result="fbSourceGraphic"
         id="feColorMatrix24" /><feColorMatrix
         result="fbSourceGraphicAlpha"
         in="fbSourceGraphic"
         values="0 0 0 -1 0 0 0 0 -1 0 0 0 0 -1 0 0 0 0 1 0"
         id="feColorMatrix39" /><feComposite
         id="feComposite39"
         in2="fbSourceGraphic"
         operator="arithmetic"
         k1="0.638298"
         k2="0.486322"
         result="composite1"
         in="fbSourceGraphic" /><feColorMatrix
         id="feColorMatrix40"
         in="composite1"
         values="1"
         type="saturate"
         result="colormatrix1" /><feFlood
         id="feFlood40"
         flood-opacity="0.592157"
         flood-color="rgb(33,151,61)"
         result="flood1" /><feBlend
         id="feBlend40"
         in="flood1"
         in2="colormatrix1"
         mode="normal"
         result="blend1" /><feBlend
         id="feBlend41"
         in2="blend1"
         mode="normal"
         result="blend2" /><feColorMatrix
         id="feColorMatrix41"
         in="blend2"
         values="1"
         type="saturate"
         result="colormatrix2" /><feComposite
         id="feComposite41"
         in="colormatrix2"
         in2="fbSourceGraphic"
         operator="in"
         k2="1"
         result="fbSourceGraphic" /><feColorMatrix
         result="fbSourceGraphicAlpha"
         in="fbSourceGraphic"
         values="0 0 0 -1 0 0 0 0 -1 0 0 0 0 -1 0 0 0 0 1 0"
         id="feColorMatrix111" /><feColorMatrix
         id="feColorMatrix112"
         type="hueRotate"
         values="108"
         result="color1"
         in="fbSourceGraphic" /><feColorMatrix
         id="feColorMatrix113"
         type="saturate"
         values="0.899696"
         result="fbSourceGraphic" /><feColorMatrix
         result="fbSourceGraphicAlpha"
         in="fbSourceGraphic"
         values="0 0 0 -1 0 0 0 0 -1 0 0 0 0 -1 0 0 0 0 1 0"
         id="feColorMatrix134" /><feColorMatrix
         id="feColorMatrix135"
         values="0.841772 0 0 0.128225 0.0791139 0 0.841772 0 0.128225 0.0791139 0 0 0.841772 0.128225 0.0791139 0 0 0 1 0"
         in="fbSourceGraphic" /></filter><filter
       style="color-interpolation-filters:sRGB;"
       inkscape:label="Color Shift"
       id="filter64"
       x="-7.8124999e-05"
       y="-0.00013846163"
       width="1.0001562"
       height="1.0002774"><feColorMatrix
         type="hueRotate"
         values="21"
         result="color1"
         id="feColorMatrix63" /><feColorMatrix
         type="saturate"
         values="0.75076"
         result="color2"
         id="feColorMatrix64" /></filter></defs><metadata
     id="metadata2454" /><g
     transform="translate(119.1022,-1519.4149)"
     id="g2078"
     style="filter:url(#filter64)"
     sodipodi:insensitive="true"><rect
       y="1519.3751"
       x="-119.0625"
       height="285.75"
       width="508"
       id="rect2070"
       style="color:#000000;clip-rule:nonzero;display:inline;overflow:visible;visibility:visible;opacity:1;isolation:auto;mix-blend-mode:normal;color-interpolation:sRGB;color-interpolation-filters:linearRGB;solid-color:#000000;solid-opacity:1;fill:#1a1c2b;fill-opacity:1;fill-rule:nonzero;stroke:#0a0b15;stroke-width:0.079375;stroke-linecap:round;stroke-linejoin:round;stroke-miterlimit:4;stroke-dasharray:none;stroke-dashoffset:0;stroke-opacity:1;color-rendering:auto;image-rendering:auto;shape-rendering:auto;text-rendering:auto;enable-background:accumulate" /><rect
       style="color:#000000;clip-rule:nonzero;display:inline;overflow:visible;visibility:visible;opacity:1;isolation:auto;mix-blend-mode:normal;color-interpolation:sRGB;color-interpolation-filters:linearRGB;solid-color:#000000;solid-opacity:1;fill:#1a1c2b;fill-opacity:1;fill-rule:nonzero;stroke:none;stroke-width:0.079375;stroke-linecap:round;stroke-linejoin:round;stroke-miterlimit:4;stroke-dasharray:none;stroke-dashoffset:0;stroke-opacity:1;color-rendering:auto;image-rendering:auto;shape-rendering:auto;text-rendering:auto;enable-background:accumulate"
       id="rect2072"
       width="508"
       height="285.75"
       x="-119.0625"
       y="1519.3751" /><path
       id="path2074"
       d="m -119.0625,1519.375 v 285.75 l 508,-285.75 z"
       style="color:#000000;clip-rule:nonzero;display:inline;overflow:visible;visibility:visible;opacity:0.684;isolation:auto;mix-blend-mode:normal;color-interpolation:sRGB;color-interpolation-filters:linearRGB;solid-color:#000000;solid-opacity:1;fill:#0a0b15;fill-opacity:1;fill-rule:nonzero;stroke:none;stroke-width:0.079375;stroke-linecap:round;stroke-linejoin:round;stroke-miterlimit:4;stroke-dasharray:none;stroke-dashoffset:0;stroke-opacity:1;color-rendering:auto;image-rendering:auto;shape-rendering:auto;text-rendering:auto;enable-background:accumulate" /><path
       style="color:#000000;clip-rule:nonzero;display:inline;overflow:visible;visibility:visible;opacity:0.684;isolation:auto;mix-blend-mode:normal;color-interpolation:sRGB;color-interpolation-filters:linearRGB;solid-color:#000000;solid-opacity:1;fill:#0a0b15;fill-opacity:1;fill-rule:nonzero;stroke:none;stroke-width:0.079375;stroke-linecap:round;stroke-linejoin:round;stroke-miterlimit:4;stroke-dasharray:none;stroke-dashoffset:0;stroke-opacity:1;color-rendering:auto;image-rendering:auto;shape-rendering:auto;text-rendering:auto;enable-background:accumulate"
       d="m -119.0625,1519.375 v 285.75 l 508,-285.75 z"
       id="path2076" /></g><style
     type="text/css"
     id="style1">.st0{fill:#4D4D4D;} .st1{fill:#333333;} .st2{fill:#0275D8;} .st3{fill:#FFFFFF;} .st4{fill:#7986CB;} .st5{fill:#424242;} .st6{fill:#FF8F00;} .st7{fill:#CCCCCC;} .st8{fill:#FF7043;} .st9{fill:#2196F3;}</style><g
     id="g135"
     transform="translate(1.8999789)"><g
       id="g2305"
       transform="matrix(1.0900728,0,0,1.0900728,3641.3768,-11489.632)"
       style="stroke-width:0.91737;filter:url(#filter24)"><path
         id="path2080"
         d="m -3230.8678,10603.516 a 1.650132,1.650132 0 0 0 -1.6484,1.65 v 132.291 a 1.650132,1.650132 0 0 0 1.6484,1.651 h 74.0839 a 1.650132,1.650132 0 0 0 1.6505,-1.651 v -132.291 a 1.650132,1.650132 0 0 0 -1.6505,-1.65 z m 1.6501,3.301 h 70.7832 v 128.992 h -70.7832 z"
         style="color:#000000;font-style:normal;font-variant:normal;font-weight:normal;font-stretch:normal;font-size:medium;line-height:normal;font-family:sans-serif;font-variant-ligatures:normal;font-variant-position:normal;font-variant-caps:normal;font-variant-numeric:normal;font-variant-alternates:normal;font-feature-settings:normal;text-indent:0;text-align:start;text-decoration:none;text-decoration-line:none;text-decoration-style:solid;text-decoration-color:#000000;letter-spacing:normal;word-spacing:normal;text-transform:none;writing-mode:lr-tb;direction:ltr;text-orientation:mixed;dominant-baseline:auto;baseline-shift:baseline;text-anchor:start;white-space:normal;shape-padding:0;clip-rule:nonzero;display:inline;overflow:visible;visibility:visible;opacity:1;isolation:auto;mix-blend-mode:normal;color-interpolation:sRGB;color-interpolation-filters:linearRGB;solid-color:#000000;solid-opacity:1;vector-effect:none;fill:#5599ff;fill-opacity:1;fill-rule:evenodd;stroke:none;stroke-width:3.02726;stroke-linecap:round;stroke-linejoin:round;stroke-miterlimit:4;stroke-dasharray:none;stroke-dashoffset:0;stroke-opacity:1;color-rendering:auto;image-rendering:auto;shape-rendering:auto;text-rendering:auto;enable-background:accumulate" /><path
         style="fill:none;fill-rule:evenodd;stroke:#5599ff;stroke-width:1.21361;stroke-linecap:butt;stroke-linejoin:round;stroke-miterlimit:4;stroke-dasharray:none;stroke-opacity:1"
         d="m -3225.5756,10721.583 v -100.541 h 63.5 v 100.541 z"
         id="path2082" /><path
         id="path2084"
         d="m -3232.0522,10738.603 v 0 l 0.03,0.03 a 1.650132,1.650132 0 0 1 -0.029,-0.03 z"
         style="opacity:0.1;fill:#000000;fill-rule:evenodd;stroke:none;stroke-width:0.24272px;stroke-linecap:butt;stroke-linejoin:miter;stroke-opacity:1" /><g
         transform="matrix(0.66694416,0,0,0.66694416,-3027.9492,4863.6642)"
         id="g2162"
         style="stroke-width:0.91737"><g
           transform="matrix(-0.57984434,0,0,0.57984434,-197.13994,8528.6745)"
           id="g2158"
           style="fill:#393366;fill-opacity:1;stroke:#5599ff;stroke-width:9.25443;stroke-miterlimit:4;stroke-dasharray:none;stroke-opacity:1"><path
             id="path2154"
             d="m 105.65689,309.00267 28.90806,-23.257"
             style="fill:#393366;fill-opacity:1;fill-rule:evenodd;stroke:#5599ff;stroke-width:9.25443;stroke-linecap:round;stroke-linejoin:round;stroke-miterlimit:4;stroke-dasharray:none;stroke-opacity:1" /><path
             style="fill:#393366;fill-opacity:1;fill-rule:evenodd;stroke:#5599ff;stroke-width:9.25443;stroke-linecap:round;stroke-linejoin:round;stroke-miterlimit:4;stroke-dasharray:none;stroke-opacity:1"
             d="m 105.65689,309.00267 28.90806,23.257"
             id="path2156" /></g><path
           id="path2160"
           d="M -252.04947,8721.3334 H -222.25"
           style="fill:none;fill-rule:evenodd;stroke:#5599ff;stroke-width:5.33985;stroke-linecap:round;stroke-linejoin:miter;stroke-miterlimit:4;stroke-dasharray:none;stroke-opacity:1" /></g></g><g
       id="g89"
       transform="matrix(0.85271966,0,0,0.85271966,32.134666,70.539664)"
       style="stroke-width:1.17272"><g
         id="g88"
         style="stroke-width:1.17272"><rect
           style="fill:#01aa01;fill-opacity:1;stroke:none;stroke-width:3.4131;stroke-linecap:round"
           id="rect41"
           width="107.31406"
           height="40.231548"
           x="271.92215"
           y="58.740551"
           ry="20.115774" /><g
           id="g72"
           style="fill:#ffffff;stroke-width:1.17272"
           transform="translate(8.6210459,-73.27889)"><path
             style="fill:#ffffff;fill-opacity:1;stroke-width:1.17272"
             d="m 302.03055,154.48948 2.78028,-2.44419 -3.00524,-3.00525 -3.00522,-3.00525 -1.17212,1.17212 -1.17213,1.17213 1.61715,1.61719 1.61715,1.61715 -1.51246,1.67129 c -3.30428,3.65118 -0.0779,4.66016 3.85259,1.20481 z"
             id="path71" /><path
             style="fill:#ffffff;fill-opacity:1;stroke-width:1.17272"
             d="m 287.7823,155.97513 c 0.34643,-0.56055 -0.0507,-1.77126 -0.88259,-2.69046 l -1.51246,-1.67129 1.61715,-1.61715 1.61715,-1.61719 -1.15103,-1.15103 -1.15107,-1.15107 -2.88654,2.7655 -2.88657,2.76551 2.58022,2.69318 c 2.79982,2.92241 3.68705,3.2414 4.65574,1.674 z"
             id="path70" /><path
             style="fill:#ffffff;fill-opacity:1;stroke-width:1.17272"
             d="m 294.5237,151.76714 2.45898,-8.48181 -1.25514,-0.77572 c -1.83893,-1.1365 -2.30461,-0.28808 -5.02558,9.15729 l -2.47018,8.57468 1.18673,0.73344 c 1.80944,1.11824 2.44267,-0.0254 5.10519,-9.20788 z"
             id="path64" /></g><text
           xml:space="preserve"
           style="font-size:17.7968px;line-height:100%;font-family:'Times New Roman';-inkscape-font-specification:'Times New Roman, Normal';text-align:center;letter-spacing:0px;word-spacing:0px;text-anchor:middle;fill:none;stroke:#000000;stroke-width:0.310281px;stroke-linecap:butt;stroke-linejoin:miter;stroke-opacity:1"
           x="366.05664"
           y="78.981201"
           id="text72"
           transform="scale(0.93421605,1.0704162)"><tspan
             sodipodi:role="line"
             id="tspan72"
             style="font-style:normal;font-variant:normal;font-weight:normal;font-stretch:normal;font-size:17.7968px;line-height:100%;font-family:'Arial Rounded MT Bold';-inkscape-font-specification:'Arial Rounded MT Bold, ';fill:#ffffff;stroke:none;stroke-width:0.310281px"
             x="366.05664"
             y="78.981201">wrap</tspan></text></g></g><g
       id="g90"
       transform="matrix(1.2782891,0,0,1.2782891,-77.978184,-24.673723)"
       style="stroke-width:0.782296"><g
         id="g87"
         transform="translate(40.521066,-62.63768)"
         style="stroke-width:0.782296"><g
           id="g81"
           style="stroke-width:0.782296"><rect
             class="st2"
             x="220.51898"
             y="117.75602"
             width="10.224039"
             height="2.1687357"
             id="rect7"
             style="stroke-width:0.206983" /><path
             class="st2"
             d="m 220.51899,119.82148 c -0.10328,0.10327 -0.72291,-0.4131 -0.72291,-0.4131 -0.10328,-0.10327 -0.61964,-0.51636 -0.61964,-0.61963 0,-0.10328 0.61964,-0.61964 0.61964,-0.61964 0.10327,-0.10328 0.61963,-0.51637 0.72291,-0.4131 0.10327,0.10328 0.10327,0.92946 0.10327,1.03274 0,0.10327 0,1.03273 -0.10327,1.03273 z"
             id="path7"
             style="stroke-width:0.206983" /><path
             class="st2"
             d="m 230.74303,119.82148 c 0.10327,0.10327 0.72291,-0.4131 0.72291,-0.4131 0.10327,-0.10327 0.61964,-0.51636 0.61964,-0.61963 0,-0.10328 -0.61964,-0.61964 -0.61964,-0.61964 -0.10327,-0.10328 -0.61964,-0.51637 -0.72291,-0.4131 -0.10328,0.10328 -0.10328,0.92946 -0.10328,1.03274 0,0.10327 0,1.03273 0.10328,1.03273 z"
             id="path8"
             style="stroke-width:0.206983" /><rect
             class="st2"
             x="226.19901"
             y="121.78367"
             width="10.224039"
             height="2.1687357"
             id="rect8"
             style="stroke-width:0.206983" /><path
             class="st2"
             d="m 226.30228,123.9524 c -0.10327,0.10328 -0.72291,-0.41309 -0.72291,-0.41309 -0.10327,-0.10327 -0.61964,-0.51637 -0.61964,-0.61964 0,-0.10327 0.61964,-0.61964 0.61964,-0.61964 0.10327,-0.10327 0.61964,-0.51636 0.72291,-0.41309 0.10328,0.10327 0.10328,0.92946 0.10328,1.03273 -0.10328,0.10327 -0.10328,1.03273 -0.10328,1.03273 z"
             id="path9"
             style="stroke-width:0.206983" /><path
             class="st2"
             d="m 236.42305,123.9524 c 0.10327,0.10328 0.72291,-0.41309 0.72291,-0.41309 0.10327,-0.10327 0.61964,-0.51637 0.61964,-0.61964 0,-0.10327 -0.61964,-0.61964 -0.61964,-0.61964 -0.10327,-0.10327 -0.61964,-0.51636 -0.72291,-0.41309 -0.10327,0.10327 -0.10327,0.92946 -0.10327,1.03273 0,0.10327 0.10327,1.03273 0.10327,1.03273 z"
             id="path10"
             style="stroke-width:0.206983" /><rect
             class="st2"
             x="230.63976"
             y="125.70805"
             width="10.224039"
             height="2.1687357"
             id="rect10"
             style="stroke-width:0.206983" /><path
             class="st2"
             d="m 230.63975,127.87678 c -0.10327,0.10327 -0.72291,-0.41309 -0.72291,-0.41309 -0.10327,-0.10327 -0.61964,-0.51637 -0.61964,-0.61964 0,-0.10327 0.61964,-0.61964 0.61964,-0.61964 0.10328,-0.10327 0.61964,-0.51636 0.72291,-0.41309 0.10328,0.10327 0.10328,0.92946 0.10328,1.03273 0,0.10327 0,0.92946 -0.10328,1.03273 z"
             id="path11"
             style="stroke-width:0.206983" /><path
             class="st2"
             d="m 240.86379,127.87678 c 0.10328,0.10327 0.72292,-0.41309 0.72292,-0.41309 0.10327,-0.10327 0.61963,-0.51637 0.61963,-0.61964 0,-0.10327 -0.61963,-0.61964 -0.61963,-0.61964 -0.10328,-0.10327 -0.61964,-0.51636 -0.72292,-0.41309 -0.10327,0.10327 -0.10327,0.92946 -0.10327,1.03273 0,0.10327 0.10327,0.92946 0.10327,1.03273 z"
             id="path12"
             style="stroke-width:0.206983" /><rect
             class="st2"
             x="230.74303"
             y="129.7357"
             width="10.224039"
             height="2.1687357"
             id="rect12"
             style="stroke-width:0.206983" /><path
             class="st2"
             d="m 230.74303,131.90443 c -0.10328,0.10328 -0.72291,-0.41309 -0.72291,-0.41309 -0.10328,-0.10327 -0.61964,-0.51636 -0.61964,-0.61964 0,-0.10327 0.61964,-0.61964 0.61964,-0.61964 0.10327,-0.10327 0.61963,-0.51636 0.72291,-0.41309 0.10327,0.10327 0.10327,0.92946 0.10327,1.03273 0,0.10328 0,0.92946 -0.10327,1.03273 z"
             id="path13"
             style="stroke-width:0.206983" /><path
             class="st2"
             d="m 240.96707,131.90443 c 0.10327,0.10328 0.72291,-0.41309 0.72291,-0.41309 0.10327,-0.10327 0.61964,-0.51636 0.61964,-0.61964 0,-0.10327 -0.61964,-0.61964 -0.61964,-0.61964 -0.10327,-0.10327 -0.61964,-0.51636 -0.72291,-0.41309 -0.10328,0.10327 -0.10328,0.92946 -0.10328,1.03273 0,0.10328 0.10328,0.92946 0.10328,1.03273 z"
             id="path14"
             style="stroke-width:0.206983" /><rect
             class="st2"
             x="230.8463"
             y="133.66008"
             width="10.224039"
             height="2.1687357"
             id="rect14"
             style="stroke-width:0.206983" /><path
             class="st2"
             d="m 230.8463,135.72554 c -0.10327,0.10327 -0.72291,-0.4131 -0.72291,-0.4131 -0.10327,-0.10327 -0.61964,-0.51636 -0.61964,-0.61964 0,-0.10327 0.61964,-0.61964 0.61964,-0.61964 0.10327,-0.10327 0.61964,-0.51636 0.72291,-0.41309 0.10327,0.10328 0.10327,0.92946 0.10327,1.03273 0,0.10328 0,1.03274 -0.10327,1.03274 z"
             id="path15"
             style="stroke-width:0.206983" /><path
             class="st2"
             d="m 241.07034,135.72554 c 0.10327,0.10327 0.72291,-0.4131 0.72291,-0.4131 0.10328,-0.10327 0.61964,-0.51636 0.61964,-0.61964 0,-0.10327 -0.61964,-0.61964 -0.61964,-0.61964 -0.10327,-0.10327 -0.61964,-0.51636 -0.72291,-0.41309 -0.10327,0.10328 -0.10327,0.92946 -0.10327,1.03273 0,0.10328 0.10327,1.03274 0.10327,1.03274 z"
             id="path16"
             style="stroke-width:0.206983" /><rect
             class="st2"
             x="230.8463"
             y="137.68773"
             width="10.224039"
             height="2.1687357"
             id="rect16"
             style="stroke-width:0.206983" /><path
             class="st2"
             d="m 230.8463,139.75319 c -0.10327,0.10327 -0.72291,-0.4131 -0.72291,-0.4131 -0.10327,-0.10327 -0.61964,-0.51636 -0.61964,-0.61963 0,-0.10328 0.61964,-0.61964 0.61964,-0.61964 0.10327,-0.10328 0.61964,-0.51637 0.72291,-0.4131 0.10327,0.10328 0.10327,0.92946 0.10327,1.03274 0,0.10327 0,1.03273 -0.10327,1.03273 z"
             id="path17"
             style="stroke-width:0.206983" /><path
             class="st2"
             d="m 241.07034,139.75319 c 0.10327,0.10327 0.72291,-0.4131 0.72291,-0.4131 0.10328,-0.10327 0.61964,-0.51636 0.61964,-0.61963 0,-0.10328 -0.61964,-0.61964 -0.61964,-0.61964 -0.10327,-0.10328 -0.61964,-0.51637 -0.72291,-0.4131 -0.10327,0.10328 -0.10327,0.92946 -0.10327,1.03274 0,0.10327 0.10327,1.03273 0.10327,1.03273 z"
             id="path18"
             style="stroke-width:0.206983" /><rect
             class="st7"
             x="245.20125"
             y="137.68773"
             width="104.8475"
             height="2.1687357"
             id="rect26"
             style="stroke-width:0.206984" /><path
             class="st7"
             d="m 245.20127,139.75319 c -0.10328,0.10327 -0.72292,-0.4131 -0.72292,-0.4131 -0.10327,-0.10327 -0.61964,-0.51636 -0.61964,-0.61963 0,-0.10328 0.61964,-0.61964 0.61964,-0.61964 0.10328,-0.10328 0.61964,-0.51637 0.72292,-0.4131 0.10327,0.10328 0.10327,0.92946 0.10327,1.03274 0,0.10327 0,1.03273 -0.10327,1.03273 z"
             id="path27"
             style="stroke-width:0.206983" /><path
             class="st7"
             d="m 349.73374,139.75319 c 0.10328,0.10327 0.72291,-0.4131 0.72291,-0.4131 0.10328,-0.10327 0.61964,-0.51636 0.61964,-0.61963 0,-0.10328 -0.61964,-0.61964 -0.61964,-0.61964 -0.10327,-0.10328 -0.61963,-0.51637 -0.72291,-0.4131 -0.10327,0.10328 -0.10327,0.92946 -0.10327,1.03274 0,0.10327 0,1.03273 0.10327,1.03273 z"
             id="path28"
             style="stroke-width:0.206983" /><rect
             class="st8"
             x="245.40782"
             y="129.63243"
             width="10.224039"
             height="2.1687357"
             id="rect34"
             style="stroke-width:0.206983" /><path
             class="st8"
             d="m 245.40781,131.80116 c -0.10327,0.10327 -0.72291,-0.41309 -0.72291,-0.41309 -0.10327,-0.10328 -0.61964,-0.51637 -0.61964,-0.61964 0,-0.10327 0.61964,-0.61964 0.61964,-0.61964 0.10327,-0.10327 0.61964,-0.51637 0.72291,-0.41309 0.10327,0.10327 0.10327,0.92946 0.10327,1.03273 0,0.10327 0,0.92946 -0.10327,1.03273 z"
             id="path35"
             style="stroke-width:0.206983" /><path
             class="st8"
             d="m 255.63185,131.80116 c 0.10327,0.10327 0.72291,-0.41309 0.72291,-0.41309 0.10328,-0.10328 0.61964,-0.51637 0.61964,-0.61964 0,-0.10327 -0.61964,-0.61964 -0.61964,-0.61964 -0.10327,-0.10327 -0.61964,-0.51637 -0.72291,-0.41309 -0.10327,0.10327 -0.10327,0.92946 -0.10327,1.03273 0,0.10327 0.10327,0.92946 0.10327,1.03273 z"
             id="path36"
             style="stroke-width:0.206983" /><rect
             class="st8"
             x="271.01956"
             y="129.63243"
             width="10.224039"
             height="2.1687357"
             id="rect36"
             style="stroke-width:0.206983" /><path
             class="st8"
             d="m 271.12282,131.80116 c -0.10327,0.10327 -0.72291,-0.41309 -0.72291,-0.41309 -0.10327,-0.10328 -0.61964,-0.51637 -0.61964,-0.61964 0,-0.10327 0.61964,-0.61964 0.61964,-0.61964 0.10327,-0.10327 0.61964,-0.51637 0.72291,-0.41309 0.10327,0.10327 0.10327,0.92946 0.10327,1.03273 -0.10327,0.10327 -0.10327,0.92946 -0.10327,1.03273 z"
             id="path37"
             style="stroke-width:0.206983" /><path
             class="st8"
             d="m 281.24359,131.80116 c 0.10327,0.10327 0.72291,-0.41309 0.72291,-0.41309 0.10327,-0.10328 0.61964,-0.51637 0.61964,-0.61964 0,-0.10327 -0.61964,-0.61964 -0.61964,-0.61964 -0.10327,-0.10327 -0.61964,-0.51637 -0.72291,-0.41309 -0.10327,0.10327 -0.10327,0.92946 -0.10327,1.03273 0,0.10327 0.10327,0.92946 0.10327,1.03273 z"
             id="path38"
             style="stroke-width:0.206983" /><rect
             class="st2"
             x="284.75488"
             y="129.63243"
             width="10.224039"
             height="2.1687357"
             id="rect38"
             style="stroke-width:0.206983" /><path
             class="st2"
             d="m 284.75487,131.80116 c -0.10327,0.10327 -0.72291,-0.41309 -0.72291,-0.41309 -0.10327,-0.10328 -0.61964,-0.51637 -0.61964,-0.61964 0,-0.10327 0.61964,-0.61964 0.61964,-0.61964 0.10328,-0.10327 0.61964,-0.51637 0.72291,-0.41309 0.10328,0.10327 0.10328,0.92946 0.10328,1.03273 0,0.10327 0,0.92946 -0.10328,1.03273 z"
             id="path39"
             style="stroke-width:0.206983" /><path
             class="st2"
             d="m 294.97891,131.80116 c 0.10328,0.10327 0.72292,-0.41309 0.72292,-0.41309 0.10327,-0.10328 0.61964,-0.51637 0.61964,-0.61964 0,-0.10327 -0.61964,-0.61964 -0.61964,-0.61964 -0.10328,-0.10327 -0.61964,-0.51637 -0.72292,-0.41309 -0.10327,0.10327 -0.10327,0.92946 -0.10327,1.03273 0,0.10327 0,0.92946 0.10327,1.03273 z"
             id="path40"
             style="stroke-width:0.206983" /><rect
             class="st7"
             x="259.2464"
             y="129.63243"
             width="8.5716696"
             height="2.1687357"
             id="rect40"
             style="stroke-width:0.206983" /><path
             class="st7"
             d="m 259.24641,131.80116 c -0.10327,0.10327 -0.61964,-0.41309 -0.61964,-0.41309 -0.10327,-0.10328 -0.51636,-0.51637 -0.51636,-0.61964 0,-0.10327 0.51636,-0.61964 0.51636,-0.61964 0.10328,-0.10327 0.51637,-0.51637 0.61964,-0.41309 0.10327,0.10327 0.10327,0.92946 0.10327,1.03273 0,0.10327 0,0.92946 -0.10327,1.03273 z"
             id="path41"
             style="stroke-width:0.206983" /><path
             class="st7"
             d="m 267.81808,131.80116 c 0.10327,0.10327 0.61964,-0.41309 0.61964,-0.41309 0.10327,-0.10328 0.51637,-0.51637 0.51637,-0.61964 0,-0.10327 -0.51637,-0.61964 -0.51637,-0.61964 -0.10327,-0.10327 -0.51637,-0.51637 -0.61964,-0.41309 -0.10327,0.10327 -0.10327,0.92946 -0.10327,1.03273 0,0.10327 0,0.92946 0.10327,1.03273 z"
             id="path42"
             style="stroke-width:0.206983" /><rect
             class="st2"
             x="230.8463"
             y="141.50882"
             width="10.224039"
             height="2.1687357"
             id="rect18"
             style="stroke-width:0.206983" /><path
             class="st2"
             d="m 230.8463,143.5743 c -0.10327,0.10327 -0.72291,-0.4131 -0.72291,-0.4131 -0.10327,-0.10327 -0.61964,-0.51636 -0.61964,-0.61964 0,-0.10327 0.61964,-0.61963 0.61964,-0.61963 0.10327,-0.10328 0.61964,-0.51637 0.72291,-0.4131 0.10327,0.10328 0.10327,0.92946 0.10327,1.03273 0,0.10328 0,1.03274 -0.10327,1.03274 z"
             id="path19"
             style="stroke-width:0.206983" /><path
             class="st2"
             d="m 241.07034,143.5743 c 0.10327,0.10327 0.72291,-0.4131 0.72291,-0.4131 0.10328,-0.10327 0.61964,-0.51636 0.61964,-0.61964 0,-0.10327 -0.61964,-0.61963 -0.61964,-0.61963 -0.10327,-0.10328 -0.61964,-0.51637 -0.72291,-0.4131 -0.10327,0.10328 -0.10327,0.92946 -0.10327,1.03273 0,0.10328 0.10327,1.03274 0.10327,1.03274 z"
             id="path20"
             style="stroke-width:0.206983" /></g><g
           id="g84"
           transform="translate(0,-9.1913)"
           style="stroke-width:0.782296"><rect
             class="st2"
             x="226.19901"
             y="155.15732"
             width="10.224039"
             height="2.1687357"
             id="rect87"
             style="stroke-width:0.206983" /><path
             class="st2"
             d="m 226.30228,157.22278 c -0.10327,0.10327 -0.72291,-0.4131 -0.72291,-0.4131 -0.10327,-0.10327 -0.61964,-0.51636 -0.61964,-0.61964 0,-0.10327 0.61964,-0.61963 0.61964,-0.61963 0.10327,-0.10328 0.61964,-0.51637 0.72291,-0.4131 0.10328,0.10328 0.10328,0.92946 0.10328,1.03273 -0.10328,0.10328 -0.10328,1.03274 -0.10328,1.03274 z"
             id="path88"
             style="stroke-width:0.206983" /><path
             class="st2"
             d="m 236.42305,157.22278 c 0.10327,0.10327 0.72291,-0.4131 0.72291,-0.4131 0.10327,-0.10327 0.61964,-0.51636 0.61964,-0.61964 0,-0.10327 -0.61964,-0.61963 -0.61964,-0.61963 -0.10327,-0.10328 -0.61964,-0.51637 -0.72291,-0.4131 -0.10327,0.10328 -0.10327,0.92946 -0.10327,1.03273 0,0.10328 0.10327,1.03274 0.10327,1.03274 z"
             id="path89"
             style="stroke-width:0.206983" /><rect
             class="st8"
             x="240.8638"
             y="154.95078"
             width="16.833519"
             height="2.1687357"
             id="rect91"
             style="stroke-width:0.206983" /><path
             class="st8"
             d="m 240.86379,157.01623 c -0.10327,0.10327 -0.72291,-0.41309 -0.72291,-0.41309 -0.10327,-0.10328 -0.61964,-0.51637 -0.61964,-0.61964 0,-0.10328 0.61964,-0.61964 0.61964,-0.61964 0.10328,-0.10327 0.61964,-0.51637 0.72291,-0.41309 0.10328,0.10327 0.10328,0.92945 0.10328,1.03273 0,0.10327 0,1.03273 -0.10328,1.03273 z"
             id="path92"
             style="stroke-width:0.206983" /><path
             class="st8"
             d="m 257.59404,157.01623 c 0.10327,0.10327 0.72291,-0.41309 0.72291,-0.41309 0.10328,-0.10328 0.61964,-0.51637 0.61964,-0.61964 0,-0.10328 -0.61964,-0.61964 -0.61964,-0.61964 -0.10327,-0.10327 -0.61964,-0.51637 -0.72291,-0.41309 -0.10327,0.10327 -0.10327,0.92945 -0.10327,1.03273 0,0.10327 0,1.03273 0.10327,1.03273 z"
             id="path93"
             style="stroke-width:0.206983" /><rect
             class="st7"
             x="261.93152"
             y="154.64096"
             width="26.954287"
             height="2.1687357"
             id="rect95"
             style="stroke-width:0.206983" /><path
             class="st7"
             d="m 261.93151,156.70641 c -0.10327,0.10327 -0.72291,-0.41309 -0.72291,-0.41309 -0.10327,-0.10328 -0.61964,-0.51637 -0.61964,-0.61964 0,-0.10327 0.61964,-0.61964 0.61964,-0.61964 0.10327,-0.10327 0.61964,-0.51637 0.72291,-0.41309 0.10328,0.10327 0.10328,0.92946 0.10328,1.03273 0,0.10327 0,1.03273 -0.10328,1.03273 z"
             id="path96"
             style="stroke-width:0.206983" /><path
             class="st7"
             d="m 288.57598,156.70641 c 0.10327,0.10327 0.72291,-0.41309 0.72291,-0.41309 0.10328,-0.10328 0.61964,-0.51637 0.61964,-0.61964 0,-0.10327 -0.61964,-0.61964 -0.61964,-0.61964 -0.10327,-0.10327 -0.61964,-0.51637 -0.72291,-0.41309 -0.10327,0.10327 -0.10327,0.92946 -0.10327,1.03273 0,0.10327 0.10327,1.03273 0.10327,1.03273 z"
             id="path97"
             style="stroke-width:0.206983" /><rect
             class="st2"
             x="231.2594"
             y="159.90788"
             width="10.224039"
             height="2.1687357"
             id="rect97"
             style="stroke-width:0.206983" /><path
             class="st2"
             d="m 231.36267,161.97334 c -0.10328,0.10327 -0.72292,-0.41309 -0.72292,-0.41309 -0.10327,-0.10328 -0.61963,-0.51637 -0.61963,-0.61964 0,-0.10328 0.61963,-0.61964 0.61963,-0.61964 0.10328,-0.10327 0.61964,-0.51637 0.72292,-0.41309 0.10327,0.10327 0.10327,0.92945 0.10327,1.03273 -0.10327,0.10327 -0.10327,1.03273 -0.10327,1.03273 z"
             id="path98"
             style="stroke-width:0.206983" /><path
             class="st2"
             d="m 241.48343,161.97334 c 0.10328,0.10327 0.72291,-0.41309 0.72291,-0.41309 0.10328,-0.10328 0.61964,-0.51637 0.61964,-0.61964 0,-0.10328 -0.61964,-0.61964 -0.61964,-0.61964 -0.10327,-0.10327 -0.61963,-0.51637 -0.72291,-0.41309 -0.10327,0.10327 -0.10327,0.92945 -0.10327,1.03273 0,0.10327 0.10327,1.03273 0.10327,1.03273 z"
             id="path99"
             style="stroke-width:0.206983" /><g
             id="g83"
             transform="translate(0,-13.012421)"
             style="stroke-width:0.782296"><rect
               class="st7"
               x="265.33954"
               y="172.9203"
               width="43.747372"
               height="2.1687357"
               id="rect115"
               style="stroke-width:0.206983" /><path
               class="st7"
               d="m 265.33953,175.08903 c -0.10328,0.10327 -0.72292,-0.4131 -0.72292,-0.4131 -0.10327,-0.10327 -0.61963,-0.51636 -0.61963,-0.61963 0,-0.10328 0.61963,-0.61964 0.61963,-0.61964 0.10328,-0.10328 0.61964,-0.51637 0.72292,-0.4131 0.10327,0.10328 0.10327,0.92946 0.10327,1.03274 0,0 0,0.92945 -0.10327,1.03273 z"
               id="path116"
               style="stroke-width:0.206983" /><path
               class="st7"
               d="m 308.92494,175.08903 c 0.10328,0.10327 0.72291,-0.4131 0.72291,-0.4131 0.10328,-0.10327 0.61964,-0.51636 0.61964,-0.61963 0,-0.10328 -0.61964,-0.61964 -0.61964,-0.61964 -0.10327,-0.10328 -0.61963,-0.51637 -0.72291,-0.4131 -0.10327,0.10328 -0.10327,0.92946 -0.10327,1.03274 0,0 0,0.92945 0.10327,1.03273 z"
               id="path117"
               style="stroke-width:0.206983" /><rect
               class="st8"
               x="245.92418"
               y="172.9203"
               width="14.974604"
               height="2.1687357"
               id="rect121"
               style="stroke-width:0.206983" /><path
               class="st8"
               d="m 246.02745,175.08903 c -0.10327,0.10327 -1.03273,-0.4131 -1.136,-0.4131 -0.10328,-0.10327 -0.92946,-0.51636 -0.92946,-0.61963 0,-0.10328 0.82618,-0.61964 0.92946,-0.61964 0.10327,-0.10328 0.92945,-0.51637 1.03273,-0.4131 0.10327,0.10328 0.10327,0.92946 0.10327,1.03274 0.10327,0 0.10327,0.92945 0,1.03273 z"
               id="path122"
               style="stroke-width:0.206983" /><path
               class="st8"
               d="m 260.89878,175.08903 c 0.10327,0.10327 1.03273,-0.4131 1.13601,-0.4131 0.10327,-0.10327 0.92945,-0.51636 0.92945,-0.61963 0,-0.10328 -0.82618,-0.61964 -0.92945,-0.61964 -0.10328,-0.10328 -0.92946,-0.51637 -1.03274,-0.4131 -0.10327,0.10328 -0.10327,0.92946 -0.10327,1.03274 -0.10327,0 -0.10327,0.92945 0,1.03273 z"
               id="path123"
               style="stroke-width:0.206983" /><g
               id="g76"
               transform="translate(0,-9.1461345)"
               style="stroke-width:0.782296"><rect
                 class="st2"
                 x="251.29439"
                 y="185.88753"
                 width="10.224039"
                 height="2.1687357"
                 id="rect123"
                 style="stroke-width:0.206983" /><path
                 class="st2"
                 d="m 261.51842,188.05626 c 0.10327,0.10327 0.72291,-0.41309 0.72291,-0.41309 0.10328,-0.10328 0.61964,-0.51637 0.61964,-0.61964 0,-0.10328 -0.61964,-0.61964 -0.61964,-0.61964 -0.10327,-0.10327 -0.61964,-0.51637 -0.72291,-0.41309 -0.10327,0.10327 -0.10327,0.92945 -0.10327,1.03273 0,0.10327 0,0.92946 0.10327,1.03273 z"
                 id="path124"
                 style="stroke-width:0.206983" /><path
                 class="st2"
                 d="m 251.29438,188.05626 c -0.10327,0.10327 -0.72291,-0.41309 -0.72291,-0.41309 -0.10327,-0.10328 -0.61964,-0.51637 -0.61964,-0.61964 0,-0.10328 0.61964,-0.61964 0.61964,-0.61964 0.10327,-0.10327 0.61964,-0.51637 0.72291,-0.41309 0.10327,0.10327 0.10327,0.92945 0.10327,1.03273 0,0.10327 0,0.92946 -0.10327,1.03273 z"
                 id="path125"
                 style="stroke-width:0.206983" /><rect
                 class="st8"
                 x="231.46594"
                 y="185.88753"
                 width="14.974604"
                 height="2.1687357"
                 id="rect125"
                 style="stroke-width:0.206983" /><path
                 class="st8"
                 d="m 246.44054,188.05626 c 0.10328,0.10327 1.03273,-0.41309 1.13601,-0.41309 0.10327,-0.10328 0.92946,-0.51637 0.92946,-0.61964 0,-0.10328 -0.82619,-0.61964 -0.92946,-0.61964 -0.10328,-0.10327 -0.92946,-0.51637 -1.03273,-0.41309 -0.10328,0.10327 -0.10328,0.92945 -0.10328,1.03273 -0.10327,0.10327 -0.10327,0.92946 0,1.03273 z"
                 id="path126"
                 style="stroke-width:0.206983" /><path
                 class="st8"
                 d="m 231.56921,188.05626 c -0.10327,0.10327 -1.03273,-0.41309 -1.136,-0.41309 -0.10328,-0.10328 -0.92946,-0.51637 -0.92946,-0.61964 0,-0.10328 0.82618,-0.61964 0.92946,-0.61964 0.10327,-0.10327 0.92946,-0.51637 1.03273,-0.41309 0.10327,0.10327 0.10327,0.92945 0.10327,1.03273 0.10328,0.10327 0.10328,0.92946 0,1.03273 z"
                 id="path127"
                 style="stroke-width:0.206983" /></g></g></g></g></g><g
       id="g86"
       transform="matrix(1.2782891,0,0,1.2782891,-216.57649,29.468033)"
       style="stroke-width:0.782296"><g
         id="g80"
         style="stroke-width:0.782296"><path
           class="st7"
           d="m 380.10205,143.57429 c -0.10327,0.10328 -0.92946,-0.41309 -0.92946,-0.41309 -0.10327,-0.10327 -0.82618,-0.51637 -0.82618,-0.61964 0,-0.10327 0.72292,-0.61964 0.82618,-0.61964 0.10327,-0.10327 0.82619,-0.51636 0.92946,-0.41309 0.10327,0.10327 0.10327,0.92946 0.10327,1.03273 0,0.10327 0,0.92946 -0.10327,1.03273 z"
           id="path29-5"
           style="fill:#cccccc;stroke-width:0.206983" /><rect
           class="st2"
           x="369.46494"
           y="117.75602"
           width="10.224039"
           height="2.1687357"
           id="rect7-0"
           style="fill:#0275d8;stroke-width:0.206983" /><path
           class="st2"
           d="m 369.46493,119.82148 c -0.10329,0.10327 -0.72292,-0.4131 -0.72292,-0.4131 -0.10328,-0.10327 -0.61964,-0.51636 -0.61964,-0.61963 0,-0.10328 0.61964,-0.61964 0.61964,-0.61964 0.10328,-0.10328 0.61963,-0.51637 0.72292,-0.4131 0.10327,0.10328 0.10327,0.92946 0.10327,1.03274 0,0.10327 0,1.03273 -0.10327,1.03273 z"
           id="path7-0"
           style="fill:#0275d8;stroke-width:0.206983" /><path
           class="st2"
           d="m 379.68897,119.82148 c 0.10327,0.10327 0.72291,-0.4131 0.72291,-0.4131 0.10327,-0.10327 0.61964,-0.51636 0.61964,-0.61963 0,-0.10328 -0.61964,-0.61964 -0.61964,-0.61964 -0.10327,-0.10328 -0.61964,-0.51637 -0.72291,-0.4131 -0.10329,0.10328 -0.10329,0.92946 -0.10329,1.03274 0,0.10327 0,1.03273 0.10329,1.03273 z"
           id="path8-8"
           style="fill:#0275d8;stroke-width:0.206983" /><rect
           class="st2"
           x="375.14496"
           y="121.78367"
           width="10.224039"
           height="2.1687357"
           id="rect8-1"
           style="fill:#0275d8;stroke-width:0.206983" /><path
           class="st2"
           d="m 375.24821,123.9524 c -0.10327,0.10328 -0.72291,-0.41309 -0.72291,-0.41309 -0.10327,-0.10327 -0.61964,-0.51637 -0.61964,-0.61964 0,-0.10327 0.61964,-0.61964 0.61964,-0.61964 0.10327,-0.10327 0.61964,-0.51636 0.72291,-0.41309 0.10329,0.10327 0.10329,0.92946 0.10329,1.03273 -0.10329,0.10327 -0.10329,1.03273 -0.10329,1.03273 z"
           id="path9-1"
           style="fill:#0275d8;stroke-width:0.206983" /><path
           class="st2"
           d="m 385.36898,123.9524 c 0.10327,0.10328 0.72291,-0.41309 0.72291,-0.41309 0.10327,-0.10327 0.61964,-0.51637 0.61964,-0.61964 0,-0.10327 -0.61964,-0.61964 -0.61964,-0.61964 -0.10327,-0.10327 -0.61964,-0.51636 -0.72291,-0.41309 -0.10327,0.10327 -0.10327,0.92946 -0.10327,1.03273 0,0.10327 0.10327,1.03273 0.10327,1.03273 z"
           id="path10-7"
           style="fill:#0275d8;stroke-width:0.206983" /><rect
           class="st2"
           x="379.58569"
           y="125.70805"
           width="10.224039"
           height="2.1687357"
           id="rect10-7"
           style="fill:#0275d8;stroke-width:0.206983" /><path
           class="st2"
           d="m 379.58568,127.87678 c -0.10327,0.10327 -0.72291,-0.41309 -0.72291,-0.41309 -0.10327,-0.10327 -0.61964,-0.51637 -0.61964,-0.61964 0,-0.10327 0.61964,-0.61964 0.61964,-0.61964 0.10328,-0.10327 0.61964,-0.51636 0.72291,-0.41309 0.10329,0.10327 0.10329,0.92946 0.10329,1.03273 0,0.10327 0,0.92946 -0.10329,1.03273 z"
           id="path11-9"
           style="fill:#0275d8;stroke-width:0.206983" /><path
           class="st2"
           d="m 389.80972,127.87678 c 0.10329,0.10327 0.72292,-0.41309 0.72292,-0.41309 0.10327,-0.10327 0.61963,-0.51637 0.61963,-0.61964 0,-0.10327 -0.61963,-0.61964 -0.61963,-0.61964 -0.10328,-0.10327 -0.61964,-0.51636 -0.72292,-0.41309 -0.10327,0.10327 -0.10327,0.92946 -0.10327,1.03273 0,0.10327 0.10327,0.92946 0.10327,1.03273 z"
           id="path12-5"
           style="fill:#0275d8;stroke-width:0.206983" /><rect
           class="st2"
           x="379.68896"
           y="129.7357"
           width="10.224039"
           height="2.1687357"
           id="rect12-7"
           style="fill:#0275d8;stroke-width:0.206983" /><path
           class="st2"
           d="m 379.68897,131.90443 c -0.10329,0.10328 -0.72292,-0.41309 -0.72292,-0.41309 -0.10328,-0.10327 -0.61964,-0.51636 -0.61964,-0.61964 0,-0.10327 0.61964,-0.61964 0.61964,-0.61964 0.10328,-0.10327 0.61963,-0.51636 0.72292,-0.41309 0.10327,0.10327 0.10327,0.92946 0.10327,1.03273 0,0.10328 0,0.92946 -0.10327,1.03273 z"
           id="path13-7"
           style="fill:#0275d8;stroke-width:0.206983" /><path
           class="st2"
           d="m 389.91301,131.90443 c 0.10327,0.10328 0.72291,-0.41309 0.72291,-0.41309 0.10327,-0.10327 0.61964,-0.51636 0.61964,-0.61964 0,-0.10327 -0.61964,-0.61964 -0.61964,-0.61964 -0.10327,-0.10327 -0.61964,-0.51636 -0.72291,-0.41309 -0.10329,0.10327 -0.10329,0.92946 -0.10329,1.03273 0,0.10328 0.10329,0.92946 0.10329,1.03273 z"
           id="path14-7"
           style="fill:#0275d8;stroke-width:0.206983" /><rect
           class="st2"
           x="379.79224"
           y="133.66008"
           width="10.224039"
           height="2.1687357"
           id="rect14-3"
           style="fill:#0275d8;stroke-width:0.206983" /><path
           class="st2"
           d="m 379.79224,135.72554 c -0.10327,0.10327 -0.72291,-0.4131 -0.72291,-0.4131 -0.10328,-0.10327 -0.61965,-0.51636 -0.61965,-0.61964 0,-0.10327 0.61965,-0.61964 0.61965,-0.61964 0.10327,-0.10327 0.61964,-0.51636 0.72291,-0.41309 0.10327,0.10328 0.10327,0.92946 0.10327,1.03273 0,0.10328 0,1.03274 -0.10327,1.03274 z"
           id="path15-4"
           style="fill:#0275d8;stroke-width:0.206983" /><path
           class="st2"
           d="m 390.01627,135.72554 c 0.10327,0.10327 0.72291,-0.4131 0.72291,-0.4131 0.10329,-0.10327 0.61964,-0.51636 0.61964,-0.61964 0,-0.10327 -0.61964,-0.61964 -0.61964,-0.61964 -0.10327,-0.10327 -0.61964,-0.51636 -0.72291,-0.41309 -0.10327,0.10328 -0.10327,0.92946 -0.10327,1.03273 0,0.10328 0.10327,1.03274 0.10327,1.03274 z"
           id="path16-5"
           style="fill:#0275d8;stroke-width:0.206983" /><rect
           class="st2"
           x="379.79224"
           y="137.68773"
           width="10.224039"
           height="2.1687357"
           id="rect16-9"
           style="fill:#0275d8;stroke-width:0.206983" /><path
           class="st2"
           d="m 379.79224,139.75319 c -0.10327,0.10327 -0.72291,-0.4131 -0.72291,-0.4131 -0.10328,-0.10327 -0.61965,-0.51636 -0.61965,-0.61963 0,-0.10328 0.61965,-0.61964 0.61965,-0.61964 0.10327,-0.10328 0.61964,-0.51637 0.72291,-0.4131 0.10327,0.10328 0.10327,0.92946 0.10327,1.03274 0,0.10327 0,1.03273 -0.10327,1.03273 z"
           id="path17-4"
           style="fill:#0275d8;stroke-width:0.206983" /><path
           class="st2"
           d="m 390.01627,139.75319 c 0.10327,0.10327 0.72291,-0.4131 0.72291,-0.4131 0.10329,-0.10327 0.61964,-0.51636 0.61964,-0.61963 0,-0.10328 -0.61964,-0.61964 -0.61964,-0.61964 -0.10327,-0.10328 -0.61964,-0.51637 -0.72291,-0.4131 -0.10327,0.10328 -0.10327,0.92946 -0.10327,1.03274 0,0.10327 0.10327,1.03273 0.10327,1.03273 z"
           id="path18-0"
           style="fill:#0275d8;stroke-width:0.206983" /><rect
           class="st7"
           x="394.14722"
           y="137.68773"
           width="49.158009"
           height="2.1687357"
           id="rect26-9"
           style="fill:#cccccc;stroke-width:0.206983" /><path
           class="st7"
           d="m 394.1472,139.75319 c -0.10328,0.10327 -0.72291,-0.4131 -0.72291,-0.4131 -0.10328,-0.10327 -0.61964,-0.51636 -0.61964,-0.61963 0,-0.10328 0.61964,-0.61964 0.61964,-0.61964 0.10327,-0.10328 0.61964,-0.51637 0.72291,-0.4131 0.10328,0.10328 0.10328,0.92946 0.10328,1.03274 0,0.10327 0,1.03273 -0.10328,1.03273 z"
           id="path27-8"
           style="fill:#cccccc;stroke-width:0.206983" /><path
           class="st7"
           d="m 443.20193,139.75319 c 0.10328,0.10327 0.72291,-0.4131 0.72291,-0.4131 0.10328,-0.10327 0.61964,-0.51636 0.61964,-0.61963 0,-0.10328 -0.61964,-0.61964 -0.61964,-0.61964 -0.10327,-0.10328 -0.61963,-0.51637 -0.72291,-0.4131 -0.10327,0.10328 -0.10327,0.92946 -0.10327,1.03274 0,0.10327 0,1.03273 0.10327,1.03273 z"
           id="path28-2"
           style="fill:#cccccc;stroke-width:0.206983" /><rect
           class="st8"
           x="394.35376"
           y="129.63243"
           width="10.224039"
           height="2.1687357"
           id="rect34-0"
           style="fill:#ff7043;stroke-width:0.206983" /><path
           class="st8"
           d="m 394.35375,131.80116 c -0.10327,0.10327 -0.72291,-0.41309 -0.72291,-0.41309 -0.10328,-0.10328 -0.61965,-0.51637 -0.61965,-0.61964 0,-0.10327 0.61965,-0.61964 0.61965,-0.61964 0.10327,-0.10327 0.61964,-0.51637 0.72291,-0.41309 0.10327,0.10327 0.10327,0.92946 0.10327,1.03273 0,0.10327 0,0.92946 -0.10327,1.03273 z"
           id="path35-7"
           style="fill:#ff7043;stroke-width:0.206983" /><path
           class="st8"
           d="m 404.57778,131.80116 c 0.10327,0.10327 0.72291,-0.41309 0.72291,-0.41309 0.10328,-0.10328 0.61964,-0.51637 0.61964,-0.61964 0,-0.10327 -0.61964,-0.61964 -0.61964,-0.61964 -0.10327,-0.10327 -0.61964,-0.51637 -0.72291,-0.41309 -0.10327,0.10327 -0.10327,0.92946 -0.10327,1.03273 0,0.10327 0.10327,0.92946 0.10327,1.03273 z"
           id="path36-6"
           style="fill:#ff7043;stroke-width:0.206983" /><rect
           class="st8"
           x="419.96552"
           y="129.63243"
           width="10.224039"
           height="2.1687357"
           id="rect36-5"
           style="fill:#ff7043;stroke-width:0.206983" /><path
           class="st8"
           d="m 420.06875,131.80116 c -0.10327,0.10327 -0.72291,-0.41309 -0.72291,-0.41309 -0.10327,-0.10328 -0.61964,-0.51637 -0.61964,-0.61964 0,-0.10327 0.61964,-0.61964 0.61964,-0.61964 0.10327,-0.10327 0.61964,-0.51637 0.72291,-0.41309 0.10327,0.10327 0.10327,0.92946 0.10327,1.03273 -0.10327,0.10327 -0.10327,0.92946 -0.10327,1.03273 z"
           id="path37-5"
           style="fill:#ff7043;stroke-width:0.206983" /><path
           class="st8"
           d="m 430.18952,131.80116 c 0.10327,0.10327 0.72291,-0.41309 0.72291,-0.41309 0.10327,-0.10328 0.61964,-0.51637 0.61964,-0.61964 0,-0.10327 -0.61964,-0.61964 -0.61964,-0.61964 -0.10327,-0.10327 -0.61964,-0.51637 -0.72291,-0.41309 -0.10327,0.10327 -0.10327,0.92946 -0.10327,1.03273 0,0.10327 0.10327,0.92946 0.10327,1.03273 z"
           id="path38-9"
           style="fill:#ff7043;stroke-width:0.206983" /><rect
           class="st2"
           x="433.70084"
           y="129.63243"
           width="10.224039"
           height="2.1687357"
           id="rect38-4"
           style="fill:#0275d8;stroke-width:0.206983" /><path
           class="st2"
           d="m 433.7008,131.80116 c -0.10327,0.10327 -0.72291,-0.41309 -0.72291,-0.41309 -0.10327,-0.10328 -0.61964,-0.51637 -0.61964,-0.61964 0,-0.10327 0.61964,-0.61964 0.61964,-0.61964 0.10328,-0.10327 0.61964,-0.51637 0.72291,-0.41309 0.10328,0.10327 0.10328,0.92946 0.10328,1.03273 0,0.10327 0,0.92946 -0.10328,1.03273 z"
           id="path39-9"
           style="fill:#0275d8;stroke-width:0.206983" /><path
           class="st2"
           d="m 443.92484,131.80116 c 0.10328,0.10327 0.72292,-0.41309 0.72292,-0.41309 0.10327,-0.10328 0.61964,-0.51637 0.61964,-0.61964 0,-0.10327 -0.61964,-0.61964 -0.61964,-0.61964 -0.10328,-0.10327 -0.61964,-0.51637 -0.72292,-0.41309 -0.10327,0.10327 -0.10327,0.92946 -0.10327,1.03273 0,0.10327 0,0.92946 0.10327,1.03273 z"
           id="path40-7"
           style="fill:#0275d8;stroke-width:0.206983" /><rect
           class="st7"
           x="408.19235"
           y="129.63243"
           width="8.5716696"
           height="2.1687357"
           id="rect40-3"
           style="fill:#cccccc;stroke-width:0.206983" /><path
           class="st7"
           d="m 408.19234,131.80116 c -0.10327,0.10327 -0.61964,-0.41309 -0.61964,-0.41309 -0.10327,-0.10328 -0.51636,-0.51637 -0.51636,-0.61964 0,-0.10327 0.51636,-0.61964 0.51636,-0.61964 0.10328,-0.10327 0.51637,-0.51637 0.61964,-0.41309 0.10328,0.10327 0.10328,0.92946 0.10328,1.03273 0,0.10327 0,0.92946 -0.10328,1.03273 z"
           id="path41-5"
           style="fill:#cccccc;stroke-width:0.206983" /><path
           class="st7"
           d="m 416.76401,131.80116 c 0.10327,0.10327 0.61964,-0.41309 0.61964,-0.41309 0.10327,-0.10328 0.51637,-0.51637 0.51637,-0.61964 0,-0.10327 -0.51637,-0.61964 -0.51637,-0.61964 -0.10327,-0.10327 -0.51637,-0.51637 -0.61964,-0.41309 -0.10327,0.10327 -0.10327,0.92946 -0.10327,1.03273 0,0.10327 0,0.92946 0.10327,1.03273 z"
           id="path42-5"
           style="fill:#cccccc;stroke-width:0.206983" /><rect
           class="st2"
           x="379.79224"
           y="144.93327"
           width="10.224039"
           height="2.1687357"
           id="rect18-7"
           style="fill:#0275d8;stroke-width:0.206983" /><path
           class="st2"
           d="m 379.79224,146.99875 c -0.10327,0.10327 -0.72291,-0.4131 -0.72291,-0.4131 -0.10328,-0.10327 -0.61965,-0.51636 -0.61965,-0.61964 0,-0.10327 0.61965,-0.61963 0.61965,-0.61963 0.10327,-0.10328 0.61964,-0.51637 0.72291,-0.4131 0.10327,0.10328 0.10327,0.92946 0.10327,1.03273 0,0.10328 0,1.03274 -0.10327,1.03274 z"
           id="path19-5"
           style="fill:#0275d8;stroke-width:0.206983" /><path
           class="st2"
           d="m 390.01627,146.99875 c 0.10327,0.10327 0.72291,-0.4131 0.72291,-0.4131 0.10329,-0.10327 0.61964,-0.51636 0.61964,-0.61964 0,-0.10327 -0.61964,-0.61963 -0.61964,-0.61963 -0.10327,-0.10328 -0.61964,-0.51637 -0.72291,-0.4131 -0.10327,0.10328 -0.10327,0.92946 -0.10327,1.03273 0,0.10328 0.10327,1.03274 0.10327,1.03274 z"
           id="path20-2"
           style="fill:#0275d8;stroke-width:0.206983" /><rect
           class="st7"
           x="379.89551"
           y="141.422"
           width="55.974037"
           height="2.1687357"
           id="rect32-7"
           style="fill:#cccccc;stroke:none;stroke-width:0.206983" /><path
           class="st7"
           d="m 379.8955,143.48746 c -0.10327,0.10327 -0.82617,-0.41309 -0.82617,-0.41309 -0.10328,-0.10328 -0.72292,-0.51637 -0.72292,-0.61964 0,-0.10327 0.61964,-0.61964 0.72292,-0.61964 0.10327,-0.10327 0.72291,-0.51637 0.82617,-0.41309 0.10329,0.10327 0.10329,0.92946 0.10329,1.03273 0,0.10327 0,1.03273 -0.10329,1.03273 z"
           id="path33-2"
           style="fill:#cccccc;stroke-width:0.206983" /><path
           class="st7"
           d="m 435.87202,143.48746 c 0.10327,0.10327 0.82619,-0.41309 0.82619,-0.41309 0.10327,-0.10328 0.72291,-0.51637 0.72291,-0.61964 0,-0.10327 -0.61964,-0.61964 -0.72291,-0.61964 -0.10328,-0.10327 -0.72292,-0.51637 -0.82619,-0.41309 -0.10327,0.10327 -0.10327,0.92946 -0.10327,1.03273 0,0.10327 0.10327,1.03273 0.10327,1.03273 z"
           id="path34-9"
           style="fill:#cccccc;stroke-width:0.206983" /></g><rect
         class="st2"
         x="375.14496"
         y="150.31992"
         width="10.224039"
         height="2.1687357"
         id="rect87-1"
         style="fill:#0275d8;stroke-width:0.206983" /><path
         class="st2"
         d="m 375.24821,152.38538 c -0.10327,0.10327 -0.72291,-0.4131 -0.72291,-0.4131 -0.10327,-0.10327 -0.61964,-0.51636 -0.61964,-0.61964 0,-0.10327 0.61964,-0.61963 0.61964,-0.61963 0.10327,-0.10328 0.61964,-0.51637 0.72291,-0.4131 0.10329,0.10328 0.10329,0.92946 0.10329,1.03273 -0.10329,0.10328 -0.10329,1.03274 -0.10329,1.03274 z"
         id="path88-4"
         style="fill:#0275d8;stroke-width:0.206983" /><path
         class="st2"
         d="m 385.36898,152.38538 c 0.10327,0.10327 0.72291,-0.4131 0.72291,-0.4131 0.10327,-0.10327 0.61964,-0.51636 0.61964,-0.61964 0,-0.10327 -0.61964,-0.61963 -0.61964,-0.61963 -0.10327,-0.10328 -0.61964,-0.51637 -0.72291,-0.4131 -0.10327,0.10328 -0.10327,0.92946 -0.10327,1.03273 0,0.10328 0.10327,1.03274 0.10327,1.03274 z"
         id="path89-1"
         style="fill:#0275d8;stroke-width:0.206983" /><rect
         class="st8"
         x="389.80975"
         y="150.11337"
         width="16.833519"
         height="2.1687357"
         id="rect91-0"
         style="fill:#ff7043;stroke-width:0.206983" /><path
         class="st8"
         d="m 389.80972,152.17883 c -0.10327,0.10327 -0.72291,-0.41309 -0.72291,-0.41309 -0.10327,-0.10328 -0.61964,-0.51637 -0.61964,-0.61964 0,-0.10328 0.61964,-0.61964 0.61964,-0.61964 0.10328,-0.10327 0.61964,-0.51637 0.72291,-0.41309 0.10329,0.10327 0.10329,0.92945 0.10329,1.03273 0,0.10327 0,1.03273 -0.10329,1.03273 z"
         id="path92-9"
         style="fill:#ff7043;stroke-width:0.206983" /><path
         class="st8"
         d="m 406.53997,152.17883 c 0.10327,0.10327 0.72291,-0.41309 0.72291,-0.41309 0.10328,-0.10328 0.61964,-0.51637 0.61964,-0.61964 0,-0.10328 -0.61964,-0.61964 -0.61964,-0.61964 -0.10327,-0.10327 -0.61964,-0.51637 -0.72291,-0.41309 -0.10327,0.10327 -0.10327,0.92945 -0.10327,1.03273 0,0.10327 0,1.03273 0.10327,1.03273 z"
         id="path93-7"
         style="fill:#ff7043;stroke-width:0.206983" /><rect
         class="st7"
         x="410.87747"
         y="149.80356"
         width="26.954287"
         height="2.1687357"
         id="rect95-1"
         style="fill:#cccccc;stroke-width:0.206983" /><path
         class="st7"
         d="m 410.87744,151.86901 c -0.10327,0.10327 -0.72291,-0.41309 -0.72291,-0.41309 -0.10327,-0.10328 -0.61964,-0.51637 -0.61964,-0.61964 0,-0.10327 0.61964,-0.61964 0.61964,-0.61964 0.10327,-0.10327 0.61964,-0.51637 0.72291,-0.41309 0.10328,0.10327 0.10328,0.92946 0.10328,1.03273 0,0.10327 0,1.03273 -0.10328,1.03273 z"
         id="path96-6"
         style="fill:#cccccc;stroke-width:0.206983" /><path
         class="st7"
         d="m 437.52191,151.86901 c 0.10327,0.10327 0.72292,-0.41309 0.72292,-0.41309 0.10327,-0.10328 0.61964,-0.51637 0.61964,-0.61964 0,-0.10327 -0.61964,-0.61964 -0.61964,-0.61964 -0.10328,-0.10327 -0.61965,-0.51637 -0.72292,-0.41309 -0.10327,0.10327 -0.10327,0.92946 -0.10327,1.03273 0,0.10327 0.10327,1.03273 0.10327,1.03273 z"
         id="path97-7"
         style="fill:#cccccc;stroke-width:0.206983" /><rect
         class="st2"
         x="380.20535"
         y="155.07048"
         width="10.224039"
         height="2.1687357"
         id="rect97-5"
         style="fill:#0275d8;stroke-width:0.206983" /><path
         class="st2"
         d="m 380.30861,157.13594 c -0.10329,0.10327 -0.72292,-0.41309 -0.72292,-0.41309 -0.10327,-0.10328 -0.61964,-0.51637 -0.61964,-0.61964 0,-0.10328 0.61964,-0.61964 0.61964,-0.61964 0.10328,-0.10327 0.61964,-0.51637 0.72292,-0.41309 0.10327,0.10327 0.10327,0.92945 0.10327,1.03273 -0.10327,0.10327 -0.10327,1.03273 -0.10327,1.03273 z"
         id="path98-9"
         style="fill:#0275d8;stroke-width:0.206983" /><path
         class="st2"
         d="m 390.42936,157.13594 c 0.10329,0.10327 0.72291,-0.41309 0.72291,-0.41309 0.10329,-0.10328 0.61964,-0.51637 0.61964,-0.61964 0,-0.10328 -0.61964,-0.61964 -0.61964,-0.61964 -0.10327,-0.10327 -0.61962,-0.51637 -0.72291,-0.41309 -0.10327,0.10327 -0.10327,0.92945 -0.10327,1.03273 0,0.10327 0.10327,1.03273 0.10327,1.03273 z"
         id="path99-0"
         style="fill:#0275d8;stroke-width:0.206983" /><g
         id="g85"
         transform="translate(0,-13.012421)"
         style="stroke-width:0.782296"><rect
           class="st7"
           x="414.28549"
           y="168.0829"
           width="29.019751"
           height="2.1687357"
           id="rect115-1"
           style="fill:#cccccc;stroke-width:0.206983" /><path
           class="st7"
           d="m 414.28546,170.25163 c -0.10327,0.10327 -0.72291,-0.4131 -0.72291,-0.4131 -0.10327,-0.10327 -0.61963,-0.51636 -0.61963,-0.61963 0,-0.10328 0.61963,-0.61964 0.61963,-0.61964 0.10327,-0.10328 0.61964,-0.51637 0.72291,-0.4131 0.10328,0.10328 0.10328,0.92946 0.10328,1.03274 0,0 0,0.92945 -0.10328,1.03273 z"
           id="path116-6"
           style="fill:#cccccc;stroke-width:0.206983" /><path
           class="st7"
           d="m 443.20193,170.25163 c 0.10328,0.10327 0.72291,-0.4131 0.72291,-0.4131 0.10328,-0.10327 0.61964,-0.51636 0.61964,-0.61963 0,-0.10328 -0.61964,-0.61964 -0.61964,-0.61964 -0.10327,-0.10328 -0.61963,-0.51637 -0.72291,-0.4131 -0.10327,0.10328 -0.10327,0.92946 -0.10327,1.03274 0,0 0,0.92945 0.10327,1.03273 z"
           id="path117-3"
           style="fill:#cccccc;stroke-width:0.206983" /><rect
           class="st8"
           x="394.87012"
           y="168.0829"
           width="14.974604"
           height="2.1687357"
           id="rect121-2"
           style="fill:#ff7043;stroke-width:0.206983" /><path
           class="st8"
           d="m 394.97338,170.25163 c -0.10327,0.10327 -1.03272,-0.4131 -1.136,-0.4131 -0.10328,-0.10327 -0.92946,-0.51636 -0.92946,-0.61963 0,-0.10328 0.82618,-0.61964 0.92946,-0.61964 0.10328,-0.10328 0.92945,-0.51637 1.03273,-0.4131 0.10327,0.10328 0.10327,0.92946 0.10327,1.03274 0.10327,0 0.10327,0.92945 0,1.03273 z"
           id="path122-2"
           style="fill:#ff7043;stroke-width:0.206983" /><path
           class="st8"
           d="m 409.84471,170.25163 c 0.10327,0.10327 1.03273,-0.4131 1.13601,-0.4131 0.10327,-0.10327 0.92945,-0.51636 0.92945,-0.61963 0,-0.10328 -0.82618,-0.61964 -0.92945,-0.61964 -0.10328,-0.10328 -0.92946,-0.51637 -1.03274,-0.4131 -0.10327,0.10328 -0.10327,0.92946 -0.10327,1.03274 -0.10327,0 -0.10327,0.92945 0,1.03273 z"
           id="path123-6"
           style="fill:#ff7043;stroke-width:0.206983" /><g
           id="g78"
           transform="translate(0,-11.876434)"
           style="stroke-width:0.782296"><rect
             class="st2"
             x="400.24033"
             y="187.39499"
             width="10.224039"
             height="2.1687357"
             id="rect123-0"
             style="fill:#0275d8;stroke-width:0.206983" /><path
             class="st2"
             d="m 410.46435,189.56372 c 0.10327,0.10327 0.72291,-0.41309 0.72291,-0.41309 0.10328,-0.10328 0.61964,-0.51637 0.61964,-0.61964 0,-0.10328 -0.61964,-0.61964 -0.61964,-0.61964 -0.10327,-0.10327 -0.61964,-0.51637 -0.72291,-0.41309 -0.10327,0.10327 -0.10327,0.92945 -0.10327,1.03273 0,0.10327 0,0.92946 0.10327,1.03273 z"
             id="path124-2"
             style="fill:#0275d8;stroke-width:0.206983" /><path
             class="st2"
             d="m 400.24031,189.56372 c -0.10327,0.10327 -0.72291,-0.41309 -0.72291,-0.41309 -0.10327,-0.10328 -0.61964,-0.51637 -0.61964,-0.61964 0,-0.10328 0.61964,-0.61964 0.61964,-0.61964 0.10327,-0.10327 0.61964,-0.51637 0.72291,-0.41309 0.10327,0.10327 0.10327,0.92945 0.10327,1.03273 0,0.10327 0,0.92946 -0.10327,1.03273 z"
             id="path125-4"
             style="fill:#0275d8;stroke-width:0.206983" /><rect
             class="st8"
             x="380.4119"
             y="187.39499"
             width="14.974604"
             height="2.1687357"
             id="rect125-0"
             style="fill:#ff7043;stroke-width:0.206983" /><path
             class="st8"
             d="m 395.38647,189.56372 c 0.10329,0.10327 1.03273,-0.41309 1.13601,-0.41309 0.10327,-0.10328 0.92946,-0.51637 0.92946,-0.61964 0,-0.10328 -0.82619,-0.61964 -0.92946,-0.61964 -0.10328,-0.10327 -0.92946,-0.51637 -1.03272,-0.41309 -0.10329,0.10327 -0.10329,0.92945 -0.10329,1.03273 -0.10327,0.10327 -0.10327,0.92946 0,1.03273 z"
             id="path126-2"
             style="fill:#ff7043;stroke-width:0.206983" /><path
             class="st8"
             d="m 380.51514,189.56372 c -0.10327,0.10327 -1.03272,-0.41309 -1.13599,-0.41309 -0.10329,-0.10328 -0.92947,-0.51637 -0.92947,-0.61964 0,-0.10328 0.82618,-0.61964 0.92947,-0.61964 0.10327,-0.10327 0.92946,-0.51637 1.03272,-0.41309 0.10327,0.10327 0.10327,0.92945 0.10327,1.03273 0.10329,0.10327 0.10329,0.92946 0,1.03273 z"
             id="path127-3"
             style="fill:#ff7043;stroke-width:0.206983" /></g><g
           id="g77"
           transform="translate(-2.38901,-21.771012)"
           style="fill:#cccccc;fill-opacity:1;stroke-width:0.782296"><rect
             class="st8"
             x="382.69763"
             y="193.675"
             width="14.974604"
             height="2.1687357"
             id="rect125-0-0"
             style="fill:#cccccc;fill-opacity:1;stroke-width:0.206983" /><path
             class="st8"
             d="m 397.67221,195.84373 c 0.10329,0.10327 1.03273,-0.41309 1.13601,-0.41309 0.10327,-0.10328 0.92946,-0.51637 0.92946,-0.61964 0,-0.10328 -0.82619,-0.61964 -0.92946,-0.61964 -0.10328,-0.10327 -0.92946,-0.51637 -1.03272,-0.41309 -0.10329,0.10327 -0.10329,0.92945 -0.10329,1.03273 -0.10327,0.10327 -0.10327,0.92946 0,1.03273 z"
             id="path126-2-7"
             style="fill:#cccccc;fill-opacity:1;stroke-width:0.206983" /><path
             class="st8"
             d="m 382.80088,195.84373 c -0.10327,0.10327 -1.03272,-0.41309 -1.13599,-0.41309 -0.10329,-0.10328 -0.92947,-0.51637 -0.92947,-0.61964 0,-0.10328 0.82618,-0.61964 0.92947,-0.61964 0.10327,-0.10327 0.92946,-0.51637 1.03272,-0.41309 0.10327,0.10327 0.10327,0.92945 0.10327,1.03273 0.10329,0.10327 0.10329,0.92946 0,1.03273 z"
             id="path127-3-1"
             style="fill:#cccccc;fill-opacity:1;stroke-width:0.206983" /></g></g></g></g></svg>
