<?xml version='1.0' encoding='utf-8'?>
<svg xmlns="http://www.w3.org/2000/svg" id="svg2191" version="1.1" viewBox="0 0 507.99999 285.75001" height="1080" width="1920"> <defs id="defs2185"/> <metadata id="metadata2188"> </metadata> <g transform="translate(0,-11.249992)" id="layer1"> <g id="g2537" transform="translate(2804.6231,-9361.0209)"> <g id="g2512" transform="translate(-2685.5209,7852.8561)"> <rect style="color:#000000;clip-rule:nonzero;display:inline;overflow:visible;visibility:visible;opacity:1;isolation:auto;mix-blend-mode:normal;color-interpolation:sRGB;color-interpolation-filters:linearRGB;solid-color:#000000;solid-opacity:1;fill:#1a1c2b;fill-opacity:1;fill-rule:nonzero;stroke:#0a0b15;stroke-width:0.079375;stroke-linecap:round;stroke-linejoin:round;stroke-miterlimit:4;stroke-dasharray:none;stroke-dashoffset:0;stroke-opacity:1;color-rendering:auto;image-rendering:auto;shape-rendering:auto;text-rendering:auto;enable-background:accumulate" id="rect2504" width="508" height="285.75" x="-119.0625" y="1519.3751"/> <rect y="1519.3751" x="-119.0625" height="285.75" width="508" id="rect2506" style="color:#000000;clip-rule:nonzero;display:inline;overflow:visible;visibility:visible;opacity:1;isolation:auto;mix-blend-mode:normal;color-interpolation:sRGB;color-interpolation-filters:linearRGB;solid-color:#000000;solid-opacity:1;fill:#1a1c2b;fill-opacity:1;fill-rule:nonzero;stroke:none;stroke-width:0.079375;stroke-linecap:round;stroke-linejoin:round;stroke-miterlimit:4;stroke-dasharray:none;stroke-dashoffset:0;stroke-opacity:1;color-rendering:auto;image-rendering:auto;shape-rendering:auto;text-rendering:auto;enable-background:accumulate"/> <path style="color:#000000;clip-rule:nonzero;display:inline;overflow:visible;visibility:visible;opacity:0.68399999;isolation:auto;mix-blend-mode:normal;color-interpolation:sRGB;color-interpolation-filters:linearRGB;solid-color:#000000;solid-opacity:1;fill:#0a0b15;fill-opacity:1;fill-rule:nonzero;stroke:none;stroke-width:0.07937499;stroke-linecap:round;stroke-linejoin:round;stroke-miterlimit:4;stroke-dasharray:none;stroke-dashoffset:0;stroke-opacity:1;color-rendering:auto;image-rendering:auto;shape-rendering:auto;text-rendering:auto;enable-background:accumulate" d="m -119.0625,1519.375 v 285.75 l 508,-285.75 z" id="path2508"/> <path id="path2510" d="m -119.0625,1519.375 v 285.75 l 508,-285.75 z" style="color:#000000;clip-rule:nonzero;display:inline;overflow:visible;visibility:visible;opacity:0.68399999;isolation:auto;mix-blend-mode:normal;color-interpolation:sRGB;color-interpolation-filters:linearRGB;solid-color:#000000;solid-opacity:1;fill:#0a0b15;fill-opacity:1;fill-rule:nonzero;stroke:none;stroke-width:0.07937499;stroke-linecap:round;stroke-linejoin:round;stroke-miterlimit:4;stroke-dasharray:none;stroke-dashoffset:0;stroke-opacity:1;color-rendering:auto;image-rendering:auto;shape-rendering:auto;text-rendering:auto;enable-background:accumulate"/> </g> <path id="path2517" d="m -2531.3608,9428.0682 a 23.016555,23.016555 0 0 0 -4.5817,0.3622 23.016555,23.016555 0 0 0 -18.7546,25.389 23.016555,23.016555 0 0 0 3.8696,10.232 h -50.7177 v 51.0166 a 23.016555,23.016555 0 0 0 -17.256,-3.7788 23.016555,23.016555 0 0 0 -18.7547,25.3889 23.016555,23.016555 0 0 0 24.2256,20.2355 23.016555,23.016555 0 0 0 11.7851,-4.1241 v 49.3598 h 50.7177 a 23.016555,23.016555 0 0 1 -3.8696,-10.232 23.016555,23.016555 0 0 1 18.7546,-25.389 23.016555,23.016555 0 0 1 26.4625,17.2075 l 0.6519,5.4411 a 23.016555,23.016555 0 0 1 -4.0054,12.9724 h 49.3862 v -49.3598 a 23.016555,23.016555 0 0 1 -11.7851,4.1241 23.016555,23.016555 0 0 1 -24.2256,-20.2355 23.016555,23.016555 0 0 1 18.7547,-25.3889 23.016555,23.016555 0 0 1 17.256,3.7788 v -51.0166 h -49.3862 a 23.016555,23.016555 0 0 0 4.0054,-12.9724 l -0.6519,-5.4411 a 23.016555,23.016555 0 0 0 -21.8808,-17.5697 z" style="color:#000000;clip-rule:nonzero;display:inline;overflow:visible;visibility:visible;opacity:1;isolation:auto;mix-blend-mode:normal;color-interpolation:sRGB;color-interpolation-filters:linearRGB;solid-color:#000000;solid-opacity:1;fill:#5599ff;fill-opacity:1;fill-rule:nonzero;stroke:none;stroke-width:13.80979061;stroke-linecap:round;stroke-linejoin:round;stroke-miterlimit:4;stroke-dasharray:none;stroke-dashoffset:0;stroke-opacity:1;color-rendering:auto;image-rendering:auto;shape-rendering:auto;text-rendering:auto;enable-background:accumulate"/> </g> </g> </svg>