<?xml version="1.0" encoding="UTF-8" standalone="no"?>
<svg
   id="svg2191"
   version="1.1"
   viewBox="0 0 507.99999 285.75001"
   height="1080"
   width="1920"
   sodipodi:docname="scss-settings-3311592.svg"
   inkscape:version="1.4.2 (f4327f4, 2025-05-13)"
   xmlns:inkscape="http://www.inkscape.org/namespaces/inkscape"
   xmlns:sodipodi="http://sodipodi.sourceforge.net/DTD/sodipodi-0.dtd"
   xmlns="http://www.w3.org/2000/svg"
   xmlns:svg="http://www.w3.org/2000/svg">
  <sodipodi:namedview
     id="namedview1"
     pagecolor="#ffffff"
     bordercolor="#666666"
     borderopacity="1.0"
     inkscape:showpageshadow="2"
     inkscape:pageopacity="0.0"
     inkscape:pagecheckerboard="0"
     inkscape:deskcolor="#d1d1d1"
     inkscape:zoom="0.54800776"
     inkscape:cx="997.24866"
     inkscape:cy="614.0424"
     inkscape:window-width="1920"
     inkscape:window-height="1017"
     inkscape:window-x="-8"
     inkscape:window-y="-8"
     inkscape:window-maximized="1"
     inkscape:current-layer="layer1" />
  <defs
     id="defs2185">
    <filter
       style="color-interpolation-filters:sRGB;"
       inkscape:label="Color Shift"
       id="filter8"
       x="0"
       y="-0.00013846163"
       width="1.0000781"
       height="1.0002774">
      <feColorMatrix
         values="0 1 0 0 0 1 0 0 0 0 0 0 1 0 0 -0.21 -0.72 -0.07 1.54711 0 "
         result="fbSourceGraphic"
         id="feColorMatrix8" />
      <feColorMatrix
         result="fbSourceGraphicAlpha"
         in="fbSourceGraphic"
         values="0 0 0 -1 0 0 0 0 -1 0 0 0 0 -1 0 0 0 0 1 0"
         id="feColorMatrix49" />
      <feColorMatrix
         id="feColorMatrix50"
         type="hueRotate"
         values="330"
         result="color1"
         in="fbSourceGraphic" />
      <feColorMatrix
         id="feColorMatrix51"
         type="saturate"
         values="0.43465"
         result="color2" />
    </filter>
    <filter
       style="color-interpolation-filters:sRGB;"
       inkscape:label="Color Shift"
       id="filter34"
       x="0"
       y="0"
       width="1"
       height="1">
      <feColorMatrix
         type="hueRotate"
         values="319"
         result="color1"
         id="feColorMatrix33" />
      <feColorMatrix
         type="saturate"
         values="0.717325"
         result="color2"
         id="feColorMatrix34" />
    </filter>
    <filter
       style="color-interpolation-filters:sRGB;"
       inkscape:label="Color Shift"
       id="filter36"
       x="0"
       y="0"
       width="1"
       height="1">
      <feColorMatrix
         type="hueRotate"
         values="319"
         result="color1"
         id="feColorMatrix35" />
      <feColorMatrix
         type="saturate"
         values="0.717325"
         result="color2"
         id="feColorMatrix36" />
    </filter>
  </defs>
  <metadata
     id="metadata2188" />
  <g
     transform="translate(0,-11.249992)"
     id="layer1">
    <g
       transform="translate(119.1022,-1508.1652)"
       id="g2858"
       style="filter:url(#filter8)">
      <rect
         y="1519.3751"
         x="-119.0625"
         height="285.75"
         width="508"
         id="rect2850"
         style="color:#000000;clip-rule:nonzero;display:inline;overflow:visible;visibility:visible;opacity:1;isolation:auto;mix-blend-mode:normal;color-interpolation:sRGB;color-interpolation-filters:linearRGB;solid-color:#000000;solid-opacity:1;fill:#1a1c2b;fill-opacity:1;fill-rule:nonzero;stroke:#0a0b15;stroke-width:0.079375;stroke-linecap:round;stroke-linejoin:round;stroke-miterlimit:4;stroke-dasharray:none;stroke-dashoffset:0;stroke-opacity:1;color-rendering:auto;image-rendering:auto;shape-rendering:auto;text-rendering:auto;enable-background:accumulate" />
      <rect
         style="color:#000000;clip-rule:nonzero;display:inline;overflow:visible;visibility:visible;opacity:1;isolation:auto;mix-blend-mode:normal;color-interpolation:sRGB;color-interpolation-filters:linearRGB;solid-color:#000000;solid-opacity:1;fill:#1a1c2b;fill-opacity:1;fill-rule:nonzero;stroke:none;stroke-width:0.079375;stroke-linecap:round;stroke-linejoin:round;stroke-miterlimit:4;stroke-dasharray:none;stroke-dashoffset:0;stroke-opacity:1;color-rendering:auto;image-rendering:auto;shape-rendering:auto;text-rendering:auto;enable-background:accumulate"
         id="rect2852"
         width="508"
         height="285.75"
         x="-119.0625"
         y="1519.3751" />
      <path
         id="path2854"
         d="m -119.0625,1519.375 v 285.75 l 508,-285.75 z"
         style="color:#000000;clip-rule:nonzero;display:inline;overflow:visible;visibility:visible;opacity:0.684;isolation:auto;mix-blend-mode:normal;color-interpolation:sRGB;color-interpolation-filters:linearRGB;solid-color:#000000;solid-opacity:1;fill:#0a0b15;fill-opacity:1;fill-rule:nonzero;stroke:none;stroke-width:0.079375;stroke-linecap:round;stroke-linejoin:round;stroke-miterlimit:4;stroke-dasharray:none;stroke-dashoffset:0;stroke-opacity:1;color-rendering:auto;image-rendering:auto;shape-rendering:auto;text-rendering:auto;enable-background:accumulate" />
      <path
         style="color:#000000;clip-rule:nonzero;display:inline;overflow:visible;visibility:visible;opacity:0.684;isolation:auto;mix-blend-mode:normal;color-interpolation:sRGB;color-interpolation-filters:linearRGB;solid-color:#000000;solid-opacity:1;fill:#0a0b15;fill-opacity:1;fill-rule:nonzero;stroke:none;stroke-width:0.079375;stroke-linecap:round;stroke-linejoin:round;stroke-miterlimit:4;stroke-dasharray:none;stroke-dashoffset:0;stroke-opacity:1;color-rendering:auto;image-rendering:auto;shape-rendering:auto;text-rendering:auto;enable-background:accumulate"
         d="m -119.1022,1519.375 v 285.75 l 508,-285.75 z"
         id="path2856" />
    </g>
    <g
       id="g2939"
       transform="matrix(0.66103989,0,0,0.66103989,2884.8784,-6832.0029)"
       style="stroke-width:1.51277;filter:url(#filter36)">
      <path
         id="path2874"
         transform="scale(0.26458333)"
         d="m -15312.627,39926.287 v 54.129 a 232.36256,232.36256 0 0 0 -59.705,24.746 l -38.287,-38.287 -82.156,82.16 38.289,38.285 a 232.36256,232.36256 0 0 0 -24.787,59.705 h -54.094 v 116.188 h 54.06 a 232.36256,232.36256 0 0 0 24.625,59.9 l -38.093,38.092 82.156,82.166 38.14,-38.142 a 232.36256,232.36256 0 0 0 59.852,24.744 v 53.982 h 116.191 v -54.027 a 232.36256,232.36256 0 0 0 59.711,-24.84 l 38.28,38.279 82.162,-82.162 -38.268,-38.266 a 232.36256,232.36256 0 0 0 24.703,-59.726 h 54.151 v -116.188 h -53.887 a 232.36256,232.36256 0 0 0 -24.902,-59.787 l 38.203,-38.203 -82.162,-82.16 -38.162,38.162 a 232.36256,232.36256 0 0 0 -59.829,-24.642 v -54.108 z m 60.561,161.471 a 117.38376,117.38376 0 0 1 111.591,89.609 l 3.327,27.748 a 117.38376,117.38376 0 0 1 -110.385,117.176 117.38376,117.38376 0 0 1 -123.549,-103.201 117.38376,117.38376 0 0 1 95.65,-129.483 117.38376,117.38376 0 0 1 23.366,-1.849 z"
         style="color:#000000;clip-rule:nonzero;display:inline;overflow:visible;visibility:visible;opacity:1;isolation:auto;mix-blend-mode:normal;color-interpolation:sRGB;color-interpolation-filters:linearRGB;solid-color:#000000;solid-opacity:1;fill:#5599ff;fill-opacity:1;fill-rule:nonzero;stroke:none;stroke-width:52.7266;stroke-linecap:round;stroke-linejoin:round;stroke-miterlimit:4;stroke-dasharray:none;stroke-dashoffset:0;stroke-opacity:1;color-rendering:auto;image-rendering:auto;shape-rendering:auto;text-rendering:auto;enable-background:accumulate" />
      <path
         id="path2880"
         transform="scale(0.26458333)"
         d="m -14656.367,40109.541 v 16.928 a 72.676898,72.676898 0 0 0 -18.674,7.74 l -11.975,-11.977 -25.697,25.702 11.977,11.972 a 72.676898,72.676898 0 0 0 -7.752,18.676 h -16.92 v 36.34 h 16.908 a 72.676898,72.676898 0 0 0 7.703,18.734 l -11.916,11.914 25.697,25.7 11.93,-11.932 a 72.676898,72.676898 0 0 0 18.719,7.74 v 16.885 h 36.342 v -16.899 a 72.676898,72.676898 0 0 0 18.675,-7.767 l 11.975,11.973 25.697,-25.7 -11.968,-11.966 a 72.676898,72.676898 0 0 0 7.726,-18.682 h 16.938 v -36.34 h -16.856 a 72.676898,72.676898 0 0 0 -7.789,-18.701 l 11.949,-11.947 -25.697,-25.702 -11.937,11.94 a 72.676898,72.676898 0 0 0 -18.713,-7.711 v -16.92 z m 18.943,50.504 a 36.714553,36.714553 0 0 1 34.903,28.027 l 1.039,8.68 a 36.714553,36.714553 0 0 1 -34.524,36.648 36.714553,36.714553 0 0 1 -38.644,-32.277 36.714553,36.714553 0 0 1 29.918,-40.5 36.714553,36.714553 0 0 1 7.308,-0.578 z"
         style="color:#000000;clip-rule:nonzero;display:inline;overflow:visible;visibility:visible;opacity:1;isolation:auto;mix-blend-mode:normal;color-interpolation:sRGB;color-interpolation-filters:linearRGB;solid-color:#000000;solid-opacity:1;fill:#5599ff;fill-opacity:1;fill-rule:nonzero;stroke:none;stroke-width:16.4914;stroke-linecap:round;stroke-linejoin:round;stroke-miterlimit:4;stroke-dasharray:none;stroke-dashoffset:0;stroke-opacity:1;color-rendering:auto;image-rendering:auto;shape-rendering:auto;text-rendering:auto;enable-background:accumulate" />
      <path
         id="path2886"
         transform="scale(0.26458333)"
         d="m -14859.789,40224.615 -60.731,23.91 11.145,28.301 a 130.52333,130.52333 0 0 0 -26.146,25.199 l -27.864,-12.121 -26.035,59.848 27.846,12.113 a 130.52333,130.52333 0 0 0 -0.738,36.371 l -28.159,11.086 23.907,60.733 28.193,-11.1 a 130.52333,130.52333 0 0 0 25.285,26.154 l -12.098,27.809 59.848,26.033 12.107,-27.828 a 130.52333,130.52333 0 0 0 36.323,0.586 l 11.14,28.297 60.733,-23.912 -11.137,-28.283 a 130.52333,130.52333 0 0 0 26.108,-25.233 l 27.892,12.137 26.037,-59.85 -27.758,-12.074 a 130.52333,130.52333 0 0 0 0.571,-36.375 l 28.238,-11.119 -23.91,-60.729 -28.209,11.104 a 130.52333,130.52333 0 0 0 -25.295,-26.098 l 12.125,-27.875 -59.85,-26.033 -12.129,27.883 a 130.52333,130.52333 0 0 0 -36.298,-0.635 z m 28.344,91.77 a 65.937123,65.937123 0 0 1 13.785,1.744 65.937123,65.937123 0 0 1 49.849,75.445 l -4.503,15.039 a 65.937123,65.937123 0 0 1 -83.116,35.619 65.937123,65.937123 0 0 1 -40.513,-80.841 65.937123,65.937123 0 0 1 64.498,-47.006 z"
         style="color:#000000;clip-rule:nonzero;display:inline;overflow:visible;visibility:visible;opacity:1;isolation:auto;mix-blend-mode:normal;color-interpolation:sRGB;color-interpolation-filters:linearRGB;solid-color:#000000;solid-opacity:1;fill:#5599ff;fill-opacity:1;fill-rule:nonzero;stroke:none;stroke-width:29.6177;stroke-linecap:round;stroke-linejoin:round;stroke-miterlimit:4;stroke-dasharray:none;stroke-dashoffset:0;stroke-opacity:1;color-rendering:auto;image-rendering:auto;shape-rendering:auto;text-rendering:auto;enable-background:accumulate" />
    </g>
    <g
       id="text1"
       style="opacity:1;stroke-width:0.873113;filter:url(#filter34)"
       transform="matrix(1.1433524,0,0,1.1473054,-35.184468,-8.9513528)">
      <path
         style="font-size:90.2744px;line-height:125%;font-family:'Lucida Sans Unicode';-inkscape-font-specification:'Lucida Sans Unicode';text-align:center;letter-spacing:0px;word-spacing:0px;baseline-shift:baseline;text-anchor:middle;display:inline;overflow:visible;vector-effect:none;fill:#5599ff;stroke-width:0.873113;enable-background:accumulate;stop-color:#000000;stop-opacity:1"
         d="m 153.21947,127.25406 v -9.16849 q 11.01982,5.1132 18.16067,5.1132 5.42175,0 8.7277,-2.86516 3.35003,-2.90923 3.35003,-7.53756 0,-3.8349 -2.20397,-6.52373 -2.15988,-2.68884 -8.02243,-5.99479 l -4.49609,-2.600677 q -8.33099,-4.760564 -11.76917,-8.948097 -3.39411,-4.231612 -3.39411,-9.785604 0,-7.581639 5.46584,-12.430361 5.46583,-4.892802 13.92905,-4.892802 7.53756,0 15.91263,2.51252 v 8.463225 q -10.31456,-4.055296 -15.38367,-4.055296 -4.80465,0 -7.93428,2.556599 -3.12963,2.5566 -3.12963,6.435578 0,3.261868 2.29213,5.774388 2.29212,2.512519 8.37506,5.994784 l 4.67241,2.644758 q 8.46322,4.804643 11.81325,9.080335 3.35003,4.27569 3.35003,10.27048 0,8.5073 -6.25926,13.66458 -6.25926,5.15728 -16.6179,5.15728 -6.61189,0 -16.83829,-2.86516 z m 101.64686,-2.11581 q -9.65337,4.98097 -21.06991,4.98097 -15.20735,0 -23.49426,-8.90402 -8.28691,-8.90402 -8.28691,-25.301519 0,-16.353419 8.41915,-25.301516 8.46322,-8.992176 23.8469,-8.992176 8.7277,0 20.49687,2.865154 v 8.683621 q -13.40011,-4.628326 -20.67319,-4.628326 -10.62311,0 -16.44158,7.184926 -5.81847,7.184925 -5.81847,20.276476 0,12.51852 6.21519,19.70345 6.21518,7.18492 17.0146,7.18492 9.21258,0 19.79161,-5.68623 z m 9.43297,2.11581 v -9.16849 q 11.01982,5.1132 18.16067,5.1132 5.42175,0 8.7277,-2.86516 3.35002,-2.90923 3.35002,-7.53756 0,-3.8349 -2.20396,-6.52373 -2.15989,-2.68884 -8.02243,-5.99479 l -4.49609,-2.600677 q -8.33099,-4.760564 -11.76917,-8.948097 -3.39411,-4.231612 -3.39411,-9.785604 0,-7.581639 5.46583,-12.430361 5.46584,-4.892802 13.92906,-4.892802 7.53756,0 15.91263,2.51252 v 8.463225 q -10.31456,-4.055296 -15.38368,-4.055296 -4.80464,0 -7.93427,2.556599 -3.12963,2.5566 -3.12963,6.435578 0,3.261868 2.29212,5.774388 2.29213,2.512519 8.37507,5.994784 l 4.6724,2.644758 q 8.46323,4.804643 11.81326,9.080335 3.35002,4.27569 3.35002,10.27048 0,8.5073 -6.25926,13.66458 -6.25926,5.15728 -16.61789,5.15728 -6.6119,0 -16.83829,-2.86516 z m 48.61946,0 v -9.16849 q 11.01983,5.1132 18.16067,5.1132 5.42176,0 8.72771,-2.86516 3.35002,-2.90923 3.35002,-7.53756 0,-3.8349 -2.20396,-6.52373 -2.15989,-2.68884 -8.02244,-5.99479 l -4.49608,-2.600677 q -8.33099,-4.760564 -11.76918,-8.948097 -3.3941,-4.231612 -3.3941,-9.785604 0,-7.581639 5.46583,-12.430361 5.46583,-4.892802 13.92906,-4.892802 7.53756,0 15.91262,2.51252 v 8.463225 q -10.31455,-4.055296 -15.38367,-4.055296 -4.80464,0 -7.93427,2.556599 -3.12963,2.5566 -3.12963,6.435578 0,3.261868 2.29212,5.774388 2.29212,2.512519 8.37507,5.994784 l 4.6724,2.644758 q 8.46323,4.804643 11.81325,9.080335 3.35003,4.27569 3.35003,10.27048 0,8.5073 -6.25926,13.66458 -6.25926,5.15728 -16.61789,5.15728 -6.6119,0 -16.8383,-2.86516 z"
         id="path5" />
      <path
         style="font-size:90.2744px;line-height:125%;font-family:'Lucida Sans Unicode';-inkscape-font-specification:'Lucida Sans Unicode';text-align:center;letter-spacing:0px;word-spacing:0px;baseline-shift:baseline;text-anchor:middle;display:inline;overflow:visible;vector-effect:none;stroke-width:0.873113;enable-background:accumulate;stop-color:#000000;stop-opacity:1"
         d="m 172.9668,61.488281 c -5.66764,0 -10.34841,1.641282 -14.01758,4.925781 -3.6695,3.255197 -5.50977,7.44308 -5.50977,12.529297 0,3.72961 1.14342,7.02603 3.42383,9.869141 2.30977,2.813188 6.24495,5.800406 11.80664,8.978516 l 4.4961,2.601564 c 3.90105,2.19984 6.56447,4.19525 7.98437,5.96289 h 0.002 c 1.44977,1.7687 2.17383,3.91015 2.17383,6.44141 0,3.05363 -1.09756,5.52078 -3.30469,7.4375 -2.17691,1.88666 -5.04942,2.83203 -8.64062,2.83203 -4.72899,0 -10.76882,-1.69736 -18.10547,-5.10157 l -0.1875,-0.0859 v 9.47461 l 0.0957,0.0273 c 6.82474,1.9121 12.44797,2.87109 16.875,2.87109 6.92772,0 12.50069,-1.72654 16.70118,-5.1875 4.20039,-3.46088 6.30664,-8.0636 6.30664,-13.76757 0,-4.02117 -1.12509,-7.47748 -3.37696,-10.35157 -2.25187,-2.874095 -6.20128,-5.905565 -11.85156,-9.113279 h -0.002 L 173.16406,89.1875 c -4.0496,-2.318254 -6.83248,-4.314303 -8.34179,-5.96875 -1.50888,-1.653955 -2.25782,-3.541955 -2.25782,-5.685547 0,-2.550407 1.01905,-4.650322 3.08008,-6.333984 2.06073,-1.683416 4.67193,-2.527344 7.85156,-2.527344 3.34413,0 8.46644,1.346045 15.33594,4.046875 l 0.17969,0.07031 v -8.755859 l -0.0937,-0.02734 c -5.59384,-1.678152 -10.91143,-2.517578 -15.95117,-2.517578 z m 61.31445,0 c -10.28156,0 -18.2738,3.009288 -23.94336,9.033203 -5.64033,5.994691 -8.45508,14.467597 -8.45508,25.392578 0,10.953948 2.77007,19.424968 8.32227,25.390628 5.5521,5.96555 13.42774,8.94726 23.59179,8.94726 7.63027,0 14.6764,-1.6657 21.13086,-4.99609 l 0.0703,-0.0371 v -8.23633 l -0.19532,0.10547 c -7.03858,3.78324 -13.61401,5.66992 -19.72851,5.66992 -7.17028,0 -12.79541,-2.3774 -16.91406,-7.13867 -4.11859,-4.7612 -6.1836,-11.2934 -6.1836,-19.617187 0,-8.708102 1.93482,-15.433948 5.78906,-20.193359 3.8542,-4.759351 9.2876,-7.136719 16.33985,-7.136719 4.82066,0 11.70248,1.537954 20.6289,4.621094 l 0.17579,0.06055 v -8.972657 l -0.10157,-0.02344 c -7.85341,-1.91188 -14.6944,-2.869141 -20.52734,-2.869141 z m 49.76562,0 c -5.66764,0 -10.3484,1.641282 -14.01757,4.925781 -3.6695,3.255197 -5.50977,7.443081 -5.50977,12.529297 0,3.72961 1.14341,7.02603 3.42383,9.869141 2.30955,2.812916 6.24384,5.800749 11.80469,8.978516 l 4.49804,2.601564 c 3.90105,2.19984 6.56447,4.19525 7.98438,5.96289 1.44976,1.7687 2.17578,3.91015 2.17578,6.44141 0,3.05363 -1.09756,5.52078 -3.30469,7.4375 -2.17692,1.88666 -5.04943,2.83203 -8.64062,2.83203 -4.72899,0 -10.76882,-1.69736 -18.10547,-5.10157 l -0.1875,-0.0859 v 9.47461 l 0.0957,0.0273 c 6.82473,1.9121 12.44601,2.87109 16.87305,2.87109 6.92771,0 12.50264,-1.72654 16.70312,-5.1875 4.2004,-3.46088 6.30664,-8.0636 6.30664,-13.76757 0,-4.02117 -1.12509,-7.47748 -3.37695,-10.35157 -2.25187,-2.874095 -6.20323,-5.905565 -11.85351,-9.113279 L 284.24414,89.1875 c -4.0496,-2.318254 -6.83247,-4.314303 -8.3418,-5.96875 -1.50887,-1.653955 -2.25781,-3.541955 -2.25781,-5.685547 0,-2.550407 1.01905,-4.650322 3.08008,-6.333984 2.06073,-1.683416 4.67193,-2.527344 7.85156,-2.527344 3.34414,0 8.46448,1.346045 15.33399,4.046875 l 0.18164,0.07031 v -8.755859 l -0.0937,-0.02734 c -5.59385,-1.678152 -10.91144,-2.517578 -15.95118,-2.517578 z m 48.61915,0 c -5.66704,0 -10.34664,1.641992 -14.01563,4.925781 -3.66949,3.255197 -5.51172,7.443081 -5.51172,12.529297 0,3.72961 1.14342,7.02603 3.42383,9.869141 2.30978,2.813188 6.24495,5.800406 11.80664,8.978516 l 4.49609,2.601564 c 3.90106,2.19984 6.56447,4.19525 7.98438,5.96289 h 0.002 c 1.44976,1.7687 2.17383,3.91015 2.17383,6.44141 0,3.05363 -1.09756,5.52078 -3.30469,7.4375 -2.17692,1.88666 -5.04942,2.83203 -8.64062,2.83203 -4.72899,0 -10.76881,-1.69736 -18.10547,-5.10157 l -0.1875,-0.0859 v 9.47461 l 0.0957,0.0273 c 6.82473,1.9121 12.44796,2.87109 16.875,2.87109 6.92771,0 12.50069,-1.72654 16.70117,-5.1875 4.2004,-3.46088 6.30665,-8.0636 6.30664,-13.76757 0,-4.02117 -1.12508,-7.47748 -3.37695,-10.35157 -2.25186,-2.874095 -6.20127,-5.905565 -11.85156,-9.113279 L 332.86328,89.1875 c -4.04961,-2.318254 -6.83248,-4.314303 -8.3418,-5.96875 -1.50886,-1.653955 -2.25781,-3.541955 -2.25781,-5.685547 0,-2.550407 1.01905,-4.650322 3.08008,-6.333984 2.06073,-1.683416 4.67193,-2.527344 7.85156,-2.527344 3.34414,0 8.46644,1.346045 15.33594,4.046875 l 0.17969,0.07031 v -8.755859 l -0.0937,-0.02734 C 343.0234,62.327709 337.7058,61.488283 332.66607,61.488283 Z M 172.9668,61.751953 c 4.98153,0 10.2436,0.833637 15.78125,2.486328 v 8.173828 c -6.78017,-2.652678 -11.87129,-4.003906 -15.25196,-4.003906 -3.22656,0 -5.90547,0.860554 -8.01757,2.585938 -2.11181,1.725138 -3.17969,3.917499 -3.17969,6.539062 0,2.205566 0.78083,4.16721 2.32812,5.863281 1.54684,1.695578 4.34527,3.694766 8.40625,6.019532 l 4.67383,2.646484 c 5.63401,3.198477 9.5586,6.22005 11.77344,9.04688 2.21484,2.82683 3.32226,6.21561 3.32226,10.1875 0,5.63908 -2.06564,10.14701 -6.21093,13.5625 -4.1452,3.41541 -9.6494,5.12695 -16.53321,5.12695 -4.36628,0 -9.94386,-0.94935 -16.70703,-2.83789 v -8.8711 c 7.26408,3.35016 13.28183,5.05469 18.0293,5.05469 3.6378,0 6.58344,-0.96489 8.81445,-2.89844 2.25958,-1.96226 3.39453,-4.51924 3.39453,-7.63671 0,-2.58095 -0.7447,-4.79142 -2.23242,-6.60743 l -0.002,-0.002 c -1.46026,-1.81701 -4.14419,-3.81802 -8.0586,-6.02539 l -4.49609,-2.59961 c -5.54629,-3.169309 -9.45795,-6.147779 -11.73242,-8.917969 -2.24391,-2.79854 -3.36328,-6.026401 -3.36328,-9.701172 0,-5.022635 1.80163,-9.122265 5.41992,-12.332031 h 0.002 c 3.61861,-3.239237 8.22319,-4.859375 13.83985,-4.859375 z m 61.31445,0 c 5.77769,0 12.5711,0.950735 20.36523,2.841797 v 8.398437 c -8.84438,-3.042546 -15.70027,-4.583984 -20.54101,-4.583984 -7.1119,0 -12.64116,2.413824 -16.54492,7.234375 -3.90371,4.820489 -5.84766,11.612076 -5.84766,20.359375 0,8.367577 2.07972,14.970357 6.24805,19.789067 4.16825,4.81862 9.88433,7.23242 17.11328,7.23242 6.11115,0 12.66787,-1.88172 19.66015,-5.60938 v 7.63867 c -6.39748,3.28673 -13.37347,4.9336 -20.9375,4.9336 -10.11241,0 -17.90132,-2.95486 -23.39843,-8.86133 -5.49702,-5.90637 -8.25,-14.30156 -8.25,-25.210938 0,-10.879577 2.7976,-19.274832 8.38281,-25.210937 5.61473,-5.965653 13.51999,-8.951172 23.75,-8.951172 z m 49.76562,0 c 4.98153,0 10.2436,0.833637 15.78125,2.486328 v 8.173828 c -6.78018,-2.652689 -11.87127,-4.003906 -15.25195,-4.003906 -3.22656,0 -5.90547,0.860554 -8.01758,2.585938 -2.1118,1.725138 -3.17968,3.917499 -3.17968,6.539062 0,2.205566 0.78083,4.16721 2.32812,5.863281 1.54685,1.695578 4.34527,3.694766 8.40625,6.019532 l 4.67383,2.646484 c 5.63402,3.198477 9.5586,6.22005 11.77344,9.04688 2.21483,2.82683 3.32226,6.21561 3.32226,10.1875 0,5.63908 -2.06565,10.14701 -6.21094,13.5625 -4.14519,3.41541 -9.65135,5.12695 -16.53515,5.12695 -4.36629,0 -9.94191,-0.94935 -16.70508,-2.83789 v -8.8711 c 7.26406,3.35015 13.28183,5.05469 18.0293,5.05469 3.6378,0 6.58148,-0.96489 8.8125,-2.89844 2.25957,-1.96226 3.39648,-4.51924 3.39648,-7.63671 0,-2.58095 -0.74471,-4.79142 -2.23242,-6.60743 l -0.002,-0.002 c -1.46027,-1.81701 -4.1442,-3.81802 -8.0586,-6.02539 l -4.49609,-2.59961 c -5.54629,-3.169309 -9.45795,-6.147779 -11.73242,-8.917969 -2.24433,-2.798719 -3.36328,-6.026064 -3.36328,-9.701172 0,-5.022635 1.80164,-9.122265 5.41992,-12.332031 3.61861,-3.239237 8.22514,-4.859375 13.84179,-4.859375 z m 48.61915,0 c 4.98152,0 10.2436,0.833637 15.78125,2.486328 v 8.173828 c -6.78017,-2.652678 -11.87128,-4.003906 -15.25196,-4.003906 -3.22656,0 -5.90547,0.860554 -8.01758,2.585938 C 323.06593,72.719279 322,74.91164 322,77.533203 c 0,2.205566 0.77888,4.16721 2.32617,5.863281 1.54684,1.695579 4.34526,3.694766 8.40625,6.019532 l 4.67383,2.646484 c 5.63402,3.198477 9.55861,6.22005 11.77344,9.04688 2.21484,2.82683 3.32226,6.21561 3.32226,10.1875 0,5.63908 -2.06565,10.14701 -6.21093,13.5625 -4.1452,3.41541 -9.64941,5.12695 -16.53321,5.12695 -4.36629,0 -9.94386,-0.94935 -16.70703,-2.83789 v -8.8711 c 7.26408,3.35016 13.28183,5.05469 18.0293,5.05469 3.63781,0 6.58344,-0.96489 8.81445,-2.89844 2.25957,-1.96226 3.39453,-4.51924 3.39453,-7.63671 0,-2.58095 -0.74471,-4.79142 -2.23242,-6.60743 l -0.002,-0.002 c -1.46027,-1.81701 -4.1442,-3.81802 -8.0586,-6.02539 L 328.5,97.5625 c -5.54629,-3.169309 -9.45795,-6.147779 -11.73242,-8.917969 -2.24391,-2.79854 -3.36328,-6.026401 -3.36328,-9.701172 0,-5.022635 1.80164,-9.122265 5.41992,-12.332031 h 0.002 c 3.61861,-3.239237 8.22319,-4.859375 13.83985,-4.859375 z"
         id="path6" />
    </g>
  </g>
</svg>
