<?xml version='1.0' encoding='utf-8'?>
<svg xmlns="http://www.w3.org/2000/svg" id="svg2191" version="1.1" viewBox="0 0 507.99999 285.75001" height="1080" width="1920"> <defs id="defs2185"/> <metadata id="metadata2188"> </metadata> <g transform="translate(0,-11.249992)" id="layer1"> <g id="g2950" transform="translate(4233.9485,-10490.935)"> <g transform="translate(-4114.8463,8982.7698)" id="g2858"> <rect y="1519.3751" x="-119.0625" height="285.75" width="508" id="rect2850" style="color:#000000;clip-rule:nonzero;display:inline;overflow:visible;visibility:visible;opacity:1;isolation:auto;mix-blend-mode:normal;color-interpolation:sRGB;color-interpolation-filters:linearRGB;solid-color:#000000;solid-opacity:1;fill:#1a1c2b;fill-opacity:1;fill-rule:nonzero;stroke:#0a0b15;stroke-width:0.079375;stroke-linecap:round;stroke-linejoin:round;stroke-miterlimit:4;stroke-dasharray:none;stroke-dashoffset:0;stroke-opacity:1;color-rendering:auto;image-rendering:auto;shape-rendering:auto;text-rendering:auto;enable-background:accumulate"/> <rect style="color:#000000;clip-rule:nonzero;display:inline;overflow:visible;visibility:visible;opacity:1;isolation:auto;mix-blend-mode:normal;color-interpolation:sRGB;color-interpolation-filters:linearRGB;solid-color:#000000;solid-opacity:1;fill:#1a1c2b;fill-opacity:1;fill-rule:nonzero;stroke:none;stroke-width:0.079375;stroke-linecap:round;stroke-linejoin:round;stroke-miterlimit:4;stroke-dasharray:none;stroke-dashoffset:0;stroke-opacity:1;color-rendering:auto;image-rendering:auto;shape-rendering:auto;text-rendering:auto;enable-background:accumulate" id="rect2852" width="508" height="285.75" x="-119.0625" y="1519.3751"/> <path id="path2854" d="m -119.0625,1519.375 v 285.75 l 508,-285.75 z" style="color:#000000;clip-rule:nonzero;display:inline;overflow:visible;visibility:visible;opacity:0.68399999;isolation:auto;mix-blend-mode:normal;color-interpolation:sRGB;color-interpolation-filters:linearRGB;solid-color:#000000;solid-opacity:1;fill:#0a0b15;fill-opacity:1;fill-rule:nonzero;stroke:none;stroke-width:0.07937499;stroke-linecap:round;stroke-linejoin:round;stroke-miterlimit:4;stroke-dasharray:none;stroke-dashoffset:0;stroke-opacity:1;color-rendering:auto;image-rendering:auto;shape-rendering:auto;text-rendering:auto;enable-background:accumulate"/> <path style="color:#000000;clip-rule:nonzero;display:inline;overflow:visible;visibility:visible;opacity:0.68399999;isolation:auto;mix-blend-mode:normal;color-interpolation:sRGB;color-interpolation-filters:linearRGB;solid-color:#000000;solid-opacity:1;fill:#0a0b15;fill-opacity:1;fill-rule:nonzero;stroke:none;stroke-width:0.07937499;stroke-linecap:round;stroke-linejoin:round;stroke-miterlimit:4;stroke-dasharray:none;stroke-dashoffset:0;stroke-opacity:1;color-rendering:auto;image-rendering:auto;shape-rendering:auto;text-rendering:auto;enable-background:accumulate" d="m -119.0625,1519.375 v 285.75 l 508,-285.75 z" id="path2856"/> </g> <g id="g2939"> <path id="path2874" transform="scale(0.26458333)" d="m -15312.627,39926.287 v 54.129 a 232.36256,232.36256 0 0 0 -59.705,24.746 l -38.287,-38.287 -82.156,82.16 38.289,38.285 a 232.36256,232.36256 0 0 0 -24.787,59.705 h -54.094 v 116.188 h 54.06 a 232.36256,232.36256 0 0 0 24.625,59.9 l -38.093,38.092 82.156,82.166 38.14,-38.142 a 232.36256,232.36256 0 0 0 59.852,24.744 v 53.982 h 116.191 v -54.027 a 232.36256,232.36256 0 0 0 59.711,-24.84 l 38.28,38.279 82.162,-82.162 -38.268,-38.266 a 232.36256,232.36256 0 0 0 24.703,-59.726 h 54.151 v -116.188 h -53.887 a 232.36256,232.36256 0 0 0 -24.902,-59.787 l 38.203,-38.203 -82.162,-82.16 -38.162,38.162 a 232.36256,232.36256 0 0 0 -59.829,-24.642 v -54.108 z m 60.561,161.471 a 117.38376,117.38376 0 0 1 111.591,89.609 l 3.327,27.748 a 117.38376,117.38376 0 0 1 -110.385,117.176 117.38376,117.38376 0 0 1 -123.549,-103.201 117.38376,117.38376 0 0 1 95.65,-129.483 117.38376,117.38376 0 0 1 23.366,-1.849 z" style="color:#000000;clip-rule:nonzero;display:inline;overflow:visible;visibility:visible;opacity:1;isolation:auto;mix-blend-mode:normal;color-interpolation:sRGB;color-interpolation-filters:linearRGB;solid-color:#000000;solid-opacity:1;fill:#5599ff;fill-opacity:1;fill-rule:nonzero;stroke:none;stroke-width:34.85438538;stroke-linecap:round;stroke-linejoin:round;stroke-miterlimit:4;stroke-dasharray:none;stroke-dashoffset:0;stroke-opacity:1;color-rendering:auto;image-rendering:auto;shape-rendering:auto;text-rendering:auto;enable-background:accumulate"/> <path id="path2880" transform="scale(0.26458333)" d="m -14656.367,40109.541 v 16.928 a 72.676898,72.676898 0 0 0 -18.674,7.74 l -11.975,-11.977 -25.697,25.702 11.977,11.972 a 72.676898,72.676898 0 0 0 -7.752,18.676 h -16.92 v 36.34 h 16.908 a 72.676898,72.676898 0 0 0 7.703,18.734 l -11.916,11.914 25.697,25.7 11.93,-11.932 a 72.676898,72.676898 0 0 0 18.719,7.74 v 16.885 h 36.342 v -16.899 a 72.676898,72.676898 0 0 0 18.675,-7.767 l 11.975,11.973 25.697,-25.7 -11.968,-11.966 a 72.676898,72.676898 0 0 0 7.726,-18.682 h 16.938 v -36.34 h -16.856 a 72.676898,72.676898 0 0 0 -7.789,-18.701 l 11.949,-11.947 -25.697,-25.702 -11.937,11.94 a 72.676898,72.676898 0 0 0 -18.713,-7.711 v -16.92 z m 18.943,50.504 a 36.714553,36.714553 0 0 1 34.903,28.027 l 1.039,8.68 a 36.714553,36.714553 0 0 1 -34.524,36.648 36.714553,36.714553 0 0 1 -38.644,-32.277 36.714553,36.714553 0 0 1 29.918,-40.5 36.714553,36.714553 0 0 1 7.308,-0.578 z" style="color:#000000;clip-rule:nonzero;display:inline;overflow:visible;visibility:visible;opacity:1;isolation:auto;mix-blend-mode:normal;color-interpolation:sRGB;color-interpolation-filters:linearRGB;solid-color:#000000;solid-opacity:1;fill:#5599ff;fill-opacity:1;fill-rule:nonzero;stroke:none;stroke-width:10.90153503;stroke-linecap:round;stroke-linejoin:round;stroke-miterlimit:4;stroke-dasharray:none;stroke-dashoffset:0;stroke-opacity:1;color-rendering:auto;image-rendering:auto;shape-rendering:auto;text-rendering:auto;enable-background:accumulate"/> <path id="path2886" transform="scale(0.26458333)" d="m -14859.789,40224.615 -60.731,23.91 11.145,28.301 a 130.52333,130.52333 0 0 0 -26.146,25.199 l -27.864,-12.121 -26.035,59.848 27.846,12.113 a 130.52333,130.52333 0 0 0 -0.738,36.371 l -28.159,11.086 23.907,60.733 28.193,-11.1 a 130.52333,130.52333 0 0 0 25.285,26.154 l -12.098,27.809 59.848,26.033 12.107,-27.828 a 130.52333,130.52333 0 0 0 36.323,0.586 l 11.14,28.297 60.733,-23.912 -11.137,-28.283 a 130.52333,130.52333 0 0 0 26.108,-25.233 l 27.892,12.137 26.037,-59.85 -27.758,-12.074 a 130.52333,130.52333 0 0 0 0.571,-36.375 l 28.238,-11.119 -23.91,-60.729 -28.209,11.104 a 130.52333,130.52333 0 0 0 -25.295,-26.098 l 12.125,-27.875 -59.85,-26.033 -12.129,27.883 a 130.52333,130.52333 0 0 0 -36.298,-0.635 z m 28.344,91.77 a 65.937123,65.937123 0 0 1 13.785,1.744 65.937123,65.937123 0 0 1 49.849,75.445 l -4.503,15.039 a 65.937123,65.937123 0 0 1 -83.116,35.619 65.937123,65.937123 0 0 1 -40.513,-80.841 65.937123,65.937123 0 0 1 64.498,-47.006 z" style="color:#000000;clip-rule:nonzero;display:inline;overflow:visible;visibility:visible;opacity:1;isolation:auto;mix-blend-mode:normal;color-interpolation:sRGB;color-interpolation-filters:linearRGB;solid-color:#000000;solid-opacity:1;fill:#5599ff;fill-opacity:1;fill-rule:nonzero;stroke:none;stroke-width:19.57850075;stroke-linecap:round;stroke-linejoin:round;stroke-miterlimit:4;stroke-dasharray:none;stroke-dashoffset:0;stroke-opacity:1;color-rendering:auto;image-rendering:auto;shape-rendering:auto;text-rendering:auto;enable-background:accumulate"/> </g> </g> </g> </svg>